<svg width="173" height="58" viewBox="0 0 173 58" fill="none" xmlns="http://www.w3.org/2000/svg">
<path d="M26.0752 0C26.1085 0.0067955 31.4786 4.05716 38.0254 9.00293C44.5776 13.9528 49.9894 18.0499 50.0527 18.1084C50.1161 18.1669 50.2091 18.3029 50.2578 18.4102C50.3309 18.5662 50.3359 18.6447 50.3018 18.7861C50.2676 18.9128 50.1743 19.0393 50.0186 19.1758C49.8869 19.2929 49.5657 19.5081 49.2979 19.6592C49.0312 19.812 43.7716 22.2644 37.6113 25.1064C31.4489 27.9495 26.3238 30.3145 26.041 30.4561V40.0244C26.041 45.2912 26.0557 49.6074 26.0752 49.6123C26.1042 49.62 26.8282 49.3323 27.6973 48.9775C28.5693 48.6167 30.4007 47.8606 31.7646 47.2949C33.1287 46.7292 35.2822 45.7981 36.5391 45.2178C37.7958 44.6424 39.3108 43.9548 39.9004 43.6865C40.4897 43.4183 41.2546 43.0721 41.6055 42.9111C41.9562 42.7551 42.4488 42.5018 42.7021 42.3506C42.9555 42.1994 43.3502 41.9265 43.5791 41.751C43.8032 41.5754 44.095 41.2967 44.2314 41.1357C44.363 40.9748 44.5432 40.6872 44.6357 40.502C44.7575 40.2484 44.8067 40.0729 44.8213 39.8193C44.8359 39.6291 44.879 38.8976 44.918 38.1855C44.9618 37.4735 44.9912 36.8887 44.9814 36.8887C44.9564 36.8909 43.7203 37.4535 42.2148 38.1465C40.6998 38.839 39.4472 39.4004 39.4326 39.3955C39.4164 39.3846 37.9461 38.3796 36.1592 37.1611C34.3763 35.942 32.9297 34.9277 32.9492 34.9082C32.9935 34.8822 36.4959 33.2679 40.7529 31.3193C45.025 29.359 48.6787 27.7101 48.8643 27.6562C49.0492 27.5978 49.3705 27.5352 49.5703 27.5107C49.7895 27.4815 50.0482 27.4815 50.2139 27.5107C50.3697 27.5351 50.5793 27.5929 50.6768 27.6465C50.779 27.6952 50.9348 27.8224 51.0225 27.9248C51.1053 28.0272 51.2179 28.213 51.2666 28.335C51.3443 28.5401 51.3487 29.0283 51.3633 35.4307C51.373 40.3156 51.3632 42.4273 51.3242 42.7207C51.2901 42.9498 51.2127 43.345 51.1494 43.5986C51.0812 43.8522 50.9304 44.2914 50.8135 44.5742C50.6917 44.8571 50.4625 45.2962 50.2969 45.5498C50.1312 45.8034 49.8629 46.1545 49.6973 46.3252C49.5366 46.4957 49.279 46.7149 49.1328 46.8174C48.9867 46.9149 43.7443 49.319 37.4893 52.1572C31.2403 54.9878 26.09 57.2981 26.041 57.2881C26.002 57.2735 24.4674 56.1857 19.2939 52.4697L19.2451 25.7891L16.1416 23.6719C14.4379 22.5106 13.0196 21.5624 12.9854 21.5557C12.9513 21.5557 12.9316 26.0668 12.9121 48.3682L6.55469 44.0625V17.1426L3.3291 14.9482C1.56072 13.7388 0.0653061 12.7187 0.0117188 12.6797C-0.0751365 12.6114 0.150381 12.4907 6.26172 9.50977L16.1123 16.1768C21.5329 19.8382 25.9997 22.8461 26.041 22.8574C26.08 22.8672 26.8252 22.5454 27.6973 22.1357C28.5692 21.731 29.295 21.3847 29.3145 21.3701C29.3311 21.3483 28.6994 20.7838 27.9023 20.1172C27.1083 19.4442 26.3626 18.8102 26.0361 18.5078L26.041 14.8359C26.041 12.8218 26.0557 11.1582 26.0752 11.1484C26.109 11.146 28.2589 12.7677 30.8643 14.7627C33.4711 16.7589 35.6409 18.4002 35.6865 18.4199C35.7255 18.4346 36.466 18.1176 37.3281 17.7227C38.1936 17.3235 38.8997 16.9875 38.8975 16.9717C38.8975 16.957 36.0083 14.8063 26.0654 7.43262L26.0508 3.7168C26.0459 1.67343 26.0557 0 26.0752 0ZM121.744 16.5381C121.851 16.5382 122.002 16.5763 122.085 16.625C122.163 16.6737 122.26 16.7813 122.294 16.8545C122.343 16.9667 122.353 19.8345 122.338 31.2852C122.328 44.8814 122.323 45.5983 122.235 46.1104C122.187 46.4077 122.075 46.9292 121.987 47.2803C121.9 47.6265 121.749 48.1341 121.646 48.4023C121.544 48.6705 121.369 49.0755 121.257 49.3047C121.145 49.5339 120.896 49.9486 120.706 50.2314C120.521 50.5143 120.205 50.929 120.005 51.1582C119.805 51.3874 119.498 51.6945 119.327 51.8457C119.157 51.9919 118.884 52.216 118.724 52.3379C118.563 52.4598 118.255 52.6691 118.041 52.8008C117.827 52.9373 117.442 53.1525 117.188 53.2793C116.935 53.406 116.483 53.6056 116.19 53.7178C115.893 53.8348 115.366 54.006 115.021 54.0986C114.67 54.1962 114.144 54.3224 113.852 54.376C113.554 54.4296 113.043 54.5127 112.707 54.5518C112.371 54.5908 111.65 54.6397 111.1 54.6543C110.52 54.6689 109.755 54.6591 109.272 54.625C108.815 54.5957 108.137 54.5224 107.762 54.4688C107.387 54.4151 106.836 54.3182 106.544 54.25C106.247 54.1866 105.809 54.0595 105.57 53.9814C105.327 53.8986 104.942 53.7329 104.279 53.4014V48.1338L104.605 48.3047C104.791 48.3973 105.171 48.5538 105.458 48.6465C105.75 48.7391 106.252 48.8702 106.578 48.9336C106.909 49.0019 107.519 49.0899 107.933 49.1338C108.493 49.1972 108.946 49.2119 109.687 49.1924C110.383 49.1778 110.855 49.1386 111.245 49.0703C111.552 49.0118 112.001 48.9101 112.244 48.8418C112.483 48.7735 112.902 48.6073 113.17 48.4805C113.438 48.3537 113.798 48.1541 113.974 48.0371C114.149 47.9201 114.446 47.6707 114.631 47.4805C114.821 47.2903 115.06 47.0027 115.167 46.8418C115.269 46.6809 115.42 46.3933 115.498 46.208C115.581 46.0178 115.684 45.6667 115.732 45.4277C115.801 45.1059 115.824 44.7737 115.824 43.4033H115.703C115.611 43.4033 115.542 43.4622 115.415 43.6572C115.322 43.7986 115.089 44.0716 114.89 44.2568C114.695 44.4469 114.325 44.7394 114.071 44.9102C113.818 45.0808 113.476 45.2862 113.315 45.3643C113.155 45.4472 112.838 45.589 112.609 45.6816C112.38 45.7743 111.995 45.9005 111.757 45.9639C111.513 46.0321 111.133 46.1202 110.904 46.1641C110.666 46.2079 110.09 46.252 109.54 46.2666C108.951 46.2861 108.406 46.2714 108.104 46.2373C107.836 46.2032 107.397 46.1347 107.129 46.0811C106.861 46.0225 106.345 45.8807 105.984 45.7637C105.624 45.6418 105.064 45.4178 104.742 45.2617C104.421 45.1106 103.972 44.8621 103.743 44.7207C103.514 44.5793 103.12 44.3015 102.866 44.1064C102.613 43.9163 102.179 43.526 101.906 43.248C101.629 42.975 101.293 42.6043 101.151 42.4287C101.015 42.2531 100.752 41.8825 100.566 41.5996C100.381 41.3168 100.104 40.8238 99.9434 40.502C99.7875 40.1802 99.573 39.6784 99.4658 39.3809C99.3587 39.0834 99.203 38.5709 99.125 38.2344C99.0422 37.8979 98.9394 37.4147 98.9004 37.1611C98.8614 36.9075 98.8036 36.435 98.7744 36.1133C98.7501 35.7914 98.7256 35.2398 98.7256 34.8936C98.7256 34.5425 98.7501 33.9966 98.7744 33.6748C98.8036 33.3529 98.8712 32.816 98.9248 32.4795C98.9833 32.143 99.1057 31.5972 99.1934 31.2607C99.2859 30.9242 99.4612 30.3971 99.583 30.0898C99.7048 29.7826 99.9193 29.3101 100.061 29.042C100.202 28.7739 100.45 28.3542 100.61 28.1152C100.771 27.8763 101.044 27.5007 101.215 27.2861C101.385 27.0716 101.711 26.7107 101.94 26.4814C102.169 26.2523 102.544 25.9207 102.769 25.7451C102.997 25.5648 103.368 25.3016 103.597 25.1504C103.826 25.0041 104.25 24.7596 104.547 24.6133C104.839 24.4621 105.293 24.2626 105.546 24.165C105.799 24.0675 106.247 23.9257 106.544 23.8477C106.836 23.7696 107.265 23.6728 107.494 23.6338C107.723 23.5899 108.206 23.5361 108.566 23.5068C109 23.4776 109.448 23.4776 109.891 23.5068C110.261 23.5361 110.798 23.5987 111.085 23.6572C111.377 23.7109 111.84 23.8332 112.122 23.9258C112.405 24.0184 112.853 24.1994 113.121 24.3311C113.389 24.4579 113.803 24.6917 114.042 24.8525C114.286 25.0086 114.646 25.2962 114.846 25.4863C115.05 25.6763 115.303 25.9591 115.41 26.1104C115.551 26.3101 115.635 26.3885 115.824 26.3838V23.2627L118.567 19.9561C120.077 18.1378 121.362 16.6213 121.427 16.5908C121.495 16.5616 121.637 16.5381 121.744 16.5381ZM131.258 7.99805C131.389 7.99805 131.472 8.03258 131.682 8.25195L131.691 17.3184C131.701 22.3003 131.721 26.3807 131.74 26.3838C131.765 26.3838 131.866 26.2615 131.974 26.1104C132.081 25.9592 132.3 25.7108 132.461 25.5596C132.622 25.4084 132.895 25.1844 133.07 25.0625C133.246 24.9357 133.572 24.7254 133.801 24.5986C134.03 24.467 134.444 24.2674 134.727 24.1553C135.009 24.0431 135.448 23.8964 135.701 23.8232C135.955 23.755 136.359 23.6679 136.603 23.624C136.841 23.585 137.323 23.5312 137.674 23.5117C138.02 23.4922 138.609 23.4922 138.975 23.5166C139.345 23.5361 139.939 23.6134 140.29 23.6816C140.646 23.7499 141.191 23.8917 141.498 23.9941C141.805 24.0966 142.288 24.2824 142.57 24.4043C142.853 24.5312 143.31 24.7698 143.588 24.9355C143.866 25.1014 144.314 25.4036 144.587 25.6084C144.855 25.8132 145.279 26.179 145.518 26.4131C145.761 26.652 146.092 27.013 146.253 27.2129C146.419 27.4128 146.701 27.7982 146.881 28.0664C147.061 28.3346 147.369 28.8804 147.563 29.2852C147.763 29.6851 147.997 30.2464 148.095 30.5293C148.187 30.8121 148.333 31.314 148.411 31.6504C148.494 31.9869 148.591 32.4994 148.635 32.7969C148.679 33.0943 148.732 33.6842 148.752 34.1133C148.776 34.5424 148.776 35.2447 148.752 35.6738C148.732 36.103 148.679 36.6937 148.635 36.9912C148.591 37.2887 148.494 37.8004 148.411 38.1367C148.333 38.4732 148.187 38.9759 148.095 39.2588C147.997 39.5416 147.763 40.0973 147.563 40.502C147.369 40.9018 147.061 41.4535 146.881 41.7217C146.701 41.9897 146.419 42.3743 146.253 42.5742C146.092 42.7742 145.78 43.1116 145.565 43.3213C145.351 43.5358 145.01 43.8431 144.811 44.0039C144.611 44.1649 144.236 44.4329 143.982 44.6035C143.729 44.7693 143.3 45.0178 143.032 45.1543C142.764 45.2957 142.317 45.4963 142.034 45.6035C141.752 45.7108 141.235 45.8761 140.889 45.9639C140.538 46.0565 139.992 46.1641 139.671 46.208C139.208 46.2762 138.862 46.2861 138.015 46.2666C137.114 46.2471 136.845 46.2225 136.344 46.1152C136.017 46.047 135.516 45.91 135.224 45.8125C134.936 45.7198 134.483 45.535 134.215 45.4033C133.947 45.2716 133.538 45.0379 133.304 44.8818C133.07 44.7258 132.724 44.4568 132.529 44.2812C132.334 44.1057 132.086 43.8376 131.979 43.6816C131.867 43.5306 131.765 43.4033 131.74 43.4033C131.721 43.4036 131.706 43.965 131.706 45.8906H125.13L125.125 14.7041L127.979 11.4609C129.553 9.67606 130.888 8.16887 130.956 8.10547C131.034 8.03732 131.141 7.99808 131.258 7.99805ZM161.325 23.1992C161.661 23.2138 162.164 23.253 162.446 23.292C162.729 23.331 163.196 23.4288 163.493 23.502C163.785 23.58 164.249 23.7257 164.517 23.8232C164.785 23.9208 165.223 24.1164 165.491 24.2529C165.759 24.3943 166.163 24.6282 166.392 24.7793C166.621 24.9256 166.982 25.1887 167.196 25.3594C167.411 25.5301 167.737 25.8137 167.922 25.9893C168.102 26.1649 168.423 26.5063 168.633 26.75C168.837 26.989 169.15 27.388 169.325 27.627C169.501 27.8659 169.802 28.3295 169.992 28.6514C170.187 28.9732 170.494 29.5444 170.679 29.9199C170.859 30.2954 171.118 30.8853 171.254 31.2363C171.385 31.5825 171.512 31.9141 171.526 31.9678C171.551 32.0556 170.82 32.4358 164.624 35.5859C160.814 37.522 157.696 39.127 157.696 39.1562C157.697 39.186 157.862 39.3317 158.062 39.4873C158.261 39.6385 158.646 39.8683 158.914 39.9951C159.182 40.1268 159.577 40.2774 159.791 40.3311C160.005 40.3847 160.395 40.4532 160.653 40.4775C160.965 40.5117 161.297 40.5117 161.604 40.4775C161.867 40.4531 162.247 40.3993 162.446 40.3555C162.646 40.3115 163.031 40.2049 163.299 40.1172C163.567 40.0246 163.995 39.8533 164.248 39.7363C164.501 39.6193 164.92 39.4002 165.174 39.249C165.427 39.0978 165.817 38.8435 166.036 38.6777C166.26 38.5168 166.597 38.2341 166.787 38.0488C166.977 37.8683 167.269 37.5563 167.439 37.3564C167.605 37.1565 167.829 36.8592 167.937 36.6982C168.044 36.5373 168.214 36.2498 168.316 36.0645C168.418 35.8749 168.51 35.7188 168.521 35.708C168.53 35.7031 169.427 36.0102 170.519 36.3906C171.611 36.7698 172.51 37.0861 172.53 37.0977C172.545 37.1074 172.525 37.2443 172.486 37.3955C172.452 37.5467 172.345 37.9027 172.253 38.1855C172.16 38.4684 171.951 38.9711 171.79 39.3076C171.634 39.6441 171.356 40.1361 171.181 40.4043C171.005 40.6724 170.718 41.0774 170.538 41.3066C170.363 41.5358 169.978 41.9652 169.681 42.2627C169.388 42.5553 168.959 42.9455 168.73 43.1309C168.501 43.3113 168.097 43.6086 167.829 43.7891C167.561 43.9695 167.113 44.2473 166.83 44.4033C166.548 44.5593 166.085 44.798 165.793 44.9248C165.506 45.0516 164.994 45.257 164.648 45.374C164.307 45.4911 163.785 45.6417 163.493 45.71C163.196 45.7831 162.739 45.876 162.471 45.915C162.203 45.9589 161.579 46.0078 161.082 46.0225C160.522 46.042 159.966 46.0273 159.62 45.9932C159.313 45.959 158.792 45.8808 158.461 45.8174C158.135 45.7491 157.599 45.6082 157.268 45.4961C156.941 45.3888 156.41 45.1736 156.089 45.0176C155.767 44.8615 155.319 44.6229 155.09 44.4814C154.861 44.34 154.466 44.0671 154.213 43.877C153.96 43.6819 153.488 43.2623 153.166 42.9404C152.844 42.6186 152.381 42.0914 152.138 41.7695C151.899 41.4477 151.548 40.9312 151.363 40.624C151.178 40.3168 150.89 39.775 150.725 39.4287C150.559 39.0776 150.326 38.5219 150.204 38.1855C150.082 37.8491 149.916 37.3033 149.833 36.9668C149.75 36.6303 149.648 36.1374 149.609 35.8691C149.566 35.601 149.521 35.0209 149.502 34.5771C149.487 34.0846 149.497 33.5621 149.531 33.2354C149.565 32.9379 149.644 32.4311 149.707 32.0996C149.775 31.7729 149.916 31.2359 150.028 30.9043C150.136 30.5775 150.374 30.0024 150.56 29.627C150.74 29.2514 151.046 28.7145 151.231 28.4316C151.421 28.1488 151.724 27.735 151.909 27.5059C152.089 27.2815 152.44 26.8962 152.679 26.6523C152.922 26.4134 153.307 26.0623 153.531 25.8818C153.76 25.6966 154.183 25.3845 154.48 25.1895C154.773 24.9944 155.226 24.7205 155.479 24.584C155.733 24.4523 156.181 24.2381 156.479 24.1162C156.771 23.9943 157.253 23.8134 157.55 23.7207C157.842 23.628 158.34 23.5019 158.646 23.4385C158.953 23.3702 159.425 23.2968 159.693 23.2676C159.961 23.2383 160.302 23.2041 160.448 23.1943C160.594 23.1846 160.989 23.1895 161.325 23.1992ZM86.0693 23.126C86.4688 23.1211 87.0046 23.1407 87.2627 23.1699C87.5256 23.1943 87.9587 23.2628 88.2266 23.3164C88.4945 23.3701 88.9969 23.507 89.3477 23.624C89.6935 23.7411 90.2097 23.9455 90.4922 24.082C90.7747 24.2185 91.3006 24.5257 91.6611 24.7646C92.0216 25.0085 92.5485 25.4085 92.8311 25.6572C93.1087 25.9108 93.5132 26.3109 93.7227 26.5547C93.9322 26.7937 94.2681 27.2133 94.4629 27.4814C94.6577 27.7497 94.979 28.232 95.1738 28.5537C95.3687 28.8756 95.6762 29.4468 95.8564 29.8223C96.0367 30.1978 96.309 30.8219 96.46 31.2119C96.611 31.602 96.7226 31.9385 96.7129 31.9678C96.685 32.0061 93.565 33.6019 89.7715 35.5273C85.9619 37.4585 82.8486 39.0537 82.8438 39.0732C82.8442 39.0979 83.0244 39.2485 83.2432 39.4092C83.4672 39.575 83.8424 39.8048 84.0859 39.9219C84.3246 40.0389 84.7438 40.1944 85.0117 40.2627C85.4355 40.3797 85.5963 40.3945 86.2783 40.3994C86.8531 40.3994 87.1746 40.3798 87.4961 40.3115C87.7348 40.2628 88.1637 40.1512 88.4463 40.0586C88.7288 39.9659 89.2645 39.741 89.6396 39.5557C90.0148 39.3703 90.5172 39.0877 90.7607 38.9316C90.9994 38.7707 91.3932 38.4782 91.6367 38.2783C91.8754 38.0784 92.2466 37.7175 92.4609 37.4785C92.6704 37.2347 92.9721 36.8395 93.1328 36.6006C93.2936 36.3616 93.4888 36.0346 93.708 35.6006L93.9121 35.6787C94.029 35.7177 94.9302 36.0395 95.9238 36.3857C96.9128 36.7369 97.7315 37.0254 97.7363 37.0303C97.7347 37.0424 97.691 37.244 97.6289 37.4785C97.5704 37.7175 97.4343 38.1371 97.3369 38.4053C97.2346 38.6734 97.0397 39.1215 96.8984 39.4043C96.7572 39.6871 96.4653 40.1801 96.251 40.502C96.0366 40.8238 95.6566 41.3265 95.3984 41.624C95.1451 41.9215 94.7651 42.3166 94.5557 42.5068C94.3413 42.697 93.9613 43.0139 93.708 43.2139C93.4548 43.4137 93.0699 43.6866 92.8555 43.8232C92.6412 43.9646 92.222 44.2082 91.9297 44.374C91.6325 44.5398 91.1742 44.7697 90.9062 44.8867C90.6384 45.0037 90.1907 45.1788 89.9082 45.2764C89.6256 45.3788 89.1428 45.5206 88.8359 45.5986C88.529 45.6718 88.0658 45.7686 87.8125 45.8125C87.559 45.8564 87.0429 45.9151 86.668 45.9395C86.2929 45.9687 85.7425 45.9785 85.4502 45.9639C85.1531 45.9492 84.6614 45.9003 84.3545 45.8613C84.0476 45.8174 83.4962 45.7108 83.1357 45.6182C82.7752 45.5255 82.2248 45.3494 81.918 45.2275C81.6113 45.1057 81.1733 44.9061 80.9443 44.7842C80.7154 44.6623 80.2864 44.4031 79.9941 44.208C79.697 44.0129 79.2484 43.6765 78.9951 43.4668C78.7418 43.2522 78.3471 42.8815 78.123 42.6426C77.899 42.4036 77.5385 41.9702 77.3145 41.6729C77.0953 41.3755 76.8035 40.9608 76.6719 40.7461C76.5404 40.5316 76.3161 40.1462 76.1797 39.8926C76.0433 39.639 75.8435 39.2194 75.7314 38.9658C75.6194 38.7122 75.4343 38.2291 75.3174 37.8926C75.2054 37.5562 75.0643 37.0739 75.001 36.8203C74.9425 36.5668 74.8642 36.1814 74.8252 35.9668C74.7911 35.7522 74.7324 35.2446 74.7031 34.8447C74.6642 34.3036 74.6642 33.9328 74.7031 33.4062C74.7324 33.0162 74.8156 32.4264 74.8838 32.0898C74.952 31.7533 75.1028 31.1822 75.2246 30.8213C75.3416 30.4604 75.5805 29.8754 75.7559 29.5293C75.9263 29.1783 76.2231 28.652 76.4229 28.3594C76.6177 28.0619 76.9203 27.6472 77.0908 27.4326C77.2662 27.218 77.6413 26.8131 77.9238 26.5303C78.2063 26.2475 78.6588 25.8523 78.9268 25.6475C79.1897 25.4427 79.5942 25.1551 79.8232 25.0088C80.0522 24.8625 80.4224 24.6424 80.6514 24.5156C80.8803 24.3937 81.2946 24.1942 81.5771 24.0771C81.8597 23.9601 82.3376 23.7792 82.6348 23.6816C82.9366 23.5842 83.3647 23.4629 83.584 23.4141C83.808 23.3604 84.2175 23.2871 84.5 23.2432C84.7826 23.1993 85.0901 23.1601 85.1826 23.1504C85.2758 23.1406 85.6752 23.126 86.0693 23.126ZM78.3135 15.46V21.5557H71.3955V45.4521H64.7217L64.6973 21.5801L57.8037 21.5557V15.46H78.3135ZM137.115 29.334C136.779 29.3242 136.453 29.3242 136.385 29.3389C136.317 29.3486 136.107 29.3829 135.922 29.4121C135.737 29.4414 135.406 29.5245 135.191 29.5879C134.977 29.6562 134.592 29.8175 134.339 29.9492C134.086 30.076 133.691 30.3342 133.462 30.5146C133.233 30.7 132.897 31.0316 132.717 31.2607C132.512 31.5143 132.283 31.8803 132.117 32.2119C131.976 32.5092 131.801 32.9573 131.737 33.2109C131.669 33.4644 131.591 33.8596 131.562 34.0889C131.537 34.3179 131.514 34.6691 131.514 34.8691C131.514 35.069 131.537 35.4202 131.562 35.6494C131.586 35.8786 131.664 36.2835 131.732 36.5518C131.805 36.8444 131.961 37.2543 132.117 37.5762C132.283 37.9078 132.512 38.2689 132.717 38.5225C132.897 38.7517 133.233 39.0882 133.462 39.2686C133.691 39.4538 134.061 39.7023 134.29 39.8193C134.519 39.9364 134.904 40.0978 135.143 40.1807C135.381 40.2587 135.81 40.3604 136.093 40.3994C136.375 40.4433 136.75 40.4775 136.936 40.4775C137.116 40.4775 137.432 40.4531 137.642 40.4238C137.846 40.3946 138.192 40.331 138.406 40.2773C138.621 40.2237 139.025 40.0682 139.308 39.9365C139.59 39.8001 139.96 39.5907 140.136 39.4639C140.311 39.3371 140.614 39.0681 140.813 38.8682C141.008 38.6682 141.266 38.361 141.383 38.1855C141.495 38.01 141.665 37.7029 141.758 37.5029C141.85 37.303 141.978 36.9959 142.031 36.8203C142.09 36.6448 142.172 36.3181 142.216 36.0889C142.274 35.806 142.299 35.4251 142.299 34.8936C142.299 34.3525 142.274 33.9869 142.221 33.6992C142.172 33.4701 142.08 33.1091 142.007 32.8945C141.934 32.6801 141.812 32.373 141.734 32.2119C141.652 32.051 141.49 31.7781 141.378 31.6025C141.261 31.427 141.008 31.1189 140.813 30.9189C140.614 30.7141 140.311 30.4461 140.136 30.3242C139.96 30.1975 139.644 30.0125 139.43 29.9053C139.215 29.7981 138.904 29.6611 138.738 29.6074C138.568 29.5489 138.27 29.4706 138.08 29.4268C137.885 29.3829 137.451 29.3437 137.115 29.334ZM110.736 29.334C110.386 29.3242 109.972 29.3341 109.811 29.3584C109.65 29.3877 109.342 29.4512 109.128 29.5049C108.914 29.5586 108.553 29.6857 108.324 29.7881C108.095 29.8905 107.745 30.0803 107.545 30.2119C107.345 30.3435 106.99 30.6361 106.761 30.8652C106.527 31.0944 106.239 31.4406 106.122 31.626C106 31.8162 105.845 32.0851 105.771 32.2266C105.703 32.3633 105.582 32.6704 105.499 32.9092C105.421 33.1433 105.323 33.5433 105.284 33.7969C105.24 34.0505 105.207 34.5475 105.207 34.8936C105.207 35.2593 105.24 35.723 105.284 35.9912C105.328 36.2448 105.416 36.6204 105.484 36.8203C105.548 37.0203 105.684 37.3616 105.786 37.5762C105.888 37.7907 106.108 38.1419 106.269 38.3564C106.424 38.571 106.698 38.8781 106.868 39.0342C107.039 39.1901 107.311 39.4093 107.472 39.5166C107.632 39.6288 107.93 39.7999 108.13 39.8975C108.33 39.995 108.671 40.132 108.885 40.2002C109.099 40.2684 109.415 40.3506 109.591 40.3848C109.766 40.4189 110.205 40.4482 110.565 40.4482C110.926 40.4482 111.389 40.4189 111.589 40.3848C111.789 40.3506 112.13 40.2684 112.344 40.2002C112.558 40.1319 112.943 39.9705 113.196 39.8389C113.45 39.712 113.835 39.4636 114.049 39.293C114.263 39.1223 114.54 38.8631 114.662 38.7168C114.784 38.5705 114.994 38.2878 115.125 38.0879C115.252 37.8879 115.432 37.5466 115.524 37.332C115.612 37.1175 115.725 36.7907 115.778 36.6006C115.827 36.4152 115.895 36.0738 115.924 35.8447C115.963 35.5717 115.977 35.1525 115.958 34.626C115.943 34.1578 115.899 33.6697 115.851 33.4551C115.807 33.2551 115.7 32.9039 115.617 32.6748C115.529 32.4456 115.369 32.0944 115.252 31.8945C115.14 31.6946 114.911 31.3679 114.74 31.168C114.575 30.9681 114.263 30.6609 114.044 30.4854C113.825 30.3099 113.445 30.0614 113.191 29.9346C112.938 29.8078 112.601 29.6611 112.44 29.6074C112.28 29.5586 111.973 29.4755 111.759 29.4316C111.544 29.3878 111.087 29.3389 110.736 29.334ZM160.913 28.749C160.563 28.7393 160.149 28.7491 159.988 28.7783C159.828 28.8027 159.53 28.8712 159.33 28.9248C159.13 28.9833 158.765 29.1154 158.526 29.2227C158.288 29.3251 157.878 29.5491 157.625 29.7197C157.372 29.8904 156.977 30.2122 156.753 30.4365C156.529 30.6608 156.232 31.0218 156.086 31.2363C155.945 31.4509 155.745 31.8265 155.647 32.0654C155.55 32.3044 155.423 32.7142 155.374 32.9678C155.296 33.3479 155.282 33.5528 155.302 34.0889C155.316 34.4489 155.34 34.7948 155.354 34.8594C155.369 34.9176 155.398 34.9663 155.418 34.9668C155.442 34.9668 157.43 33.9672 159.842 32.7432C162.246 31.523 164.233 30.5062 164.274 30.4805C164.304 30.4561 164.172 30.2849 163.934 30.0508C163.719 29.8363 163.378 29.5584 163.179 29.4268C162.979 29.3001 162.682 29.1397 162.521 29.0762C162.361 29.0079 162.073 28.915 161.888 28.8613C161.664 28.7979 161.332 28.7637 160.913 28.749ZM85.5986 28.6562C85.5158 28.666 85.2866 28.7002 85.0869 28.7295C84.8872 28.7587 84.5366 28.8468 84.3076 28.9199C84.0788 28.993 83.7085 29.1486 83.4795 29.2607C83.2505 29.3778 82.943 29.549 82.7969 29.6514C82.6508 29.7489 82.3882 29.9534 82.2129 30.0996C82.0375 30.2459 81.7447 30.5491 81.5645 30.7783C81.3551 31.0318 81.1314 31.3923 80.9707 31.7236C80.8148 32.0357 80.663 32.4358 80.6045 32.6748C80.5509 32.904 80.4931 33.2747 80.4785 33.5039C80.459 33.7331 80.4688 34.1429 80.5029 34.4209C80.5322 34.694 80.5664 34.918 80.5811 34.918C80.6207 34.9052 82.6081 33.9007 85.0283 32.6699C87.4592 31.4361 89.4571 30.417 89.4717 30.4072C89.4854 30.3918 89.4075 30.2795 89.3008 30.1533C89.1935 30.0265 88.9497 29.7976 88.7646 29.6416C88.5746 29.4855 88.2093 29.2518 87.9365 29.1201C87.6686 28.9884 87.318 28.8466 87.1572 28.8027C86.9965 28.7637 86.6654 28.705 86.4268 28.6758C86.188 28.6514 85.9344 28.6318 85.8662 28.6367C85.7981 28.6367 85.6814 28.6514 85.5986 28.6562Z" fill="#F1D95D"/>
</svg>
