<svg width="60" height="67" viewBox="0 0 60 67" fill="none" xmlns="http://www.w3.org/2000/svg">
<path d="M30.0804 4.29087L30.0973 8.58175C41.5782 17.0959 44.9139 19.5792 44.9139 19.5961C44.9195 19.613 44.1038 20.0016 43.1026 20.4633C42.1069 20.9194 41.2519 21.2854 41.2069 21.2685C41.1619 21.2517 38.6531 19.354 35.638 17.0452C32.623 14.7365 30.1367 12.8614 30.1086 12.8726C30.0861 12.8839 30.0692 14.8041 30.0692 17.1297L30.0636 21.3699C30.4404 21.719 31.3011 22.4511 32.218 23.2282C33.1405 23.9996 33.8718 24.6528 33.8493 24.6753C33.8268 24.6922 32.9886 25.092 31.9817 25.5594C30.9748 26.0324 30.1142 26.4041 30.0692 26.3928C30.0242 26.3816 24.866 22.9072 18.6052 18.6783L7.23122 10.9806C0.166077 14.4268 -0.0870531 14.5619 0.014199 14.6408C0.0760752 14.6858 1.80298 15.8627 3.8449 17.2592L7.56873 19.7932V50.8767L14.9095 55.8489C14.932 30.0981 14.9545 24.8893 14.9939 24.8893C15.022 24.8893 16.6645 25.9874 18.6389 27.3332L22.2221 29.7771L22.2784 60.5847C28.2523 64.8755 30.0242 66.1313 30.0692 66.1482C30.1142 66.1651 36.0656 63.4959 43.2882 60.2243C50.5108 56.947 56.5635 54.1709 56.7322 54.0583C56.901 53.94 57.1991 53.6866 57.3847 53.4895C57.576 53.2924 57.8854 52.887 58.0766 52.5942C58.2679 52.3014 58.5323 51.7946 58.6729 51.468C58.8079 51.1414 58.9823 50.6346 59.061 50.3418C59.1341 50.0489 59.2241 49.5928 59.2635 49.3282C59.3085 48.9903 59.3198 46.552 59.3085 40.9097C59.2916 33.5105 59.286 32.953 59.196 32.7165C59.1398 32.5757 59.0104 32.3618 58.9148 32.2435C58.8135 32.1253 58.6335 31.9788 58.5154 31.9225C58.4029 31.8606 58.161 31.793 57.981 31.7649C57.7897 31.7311 57.4916 31.7311 57.2385 31.7649C57.0078 31.793 56.6366 31.8662 56.4228 31.9338C56.2091 31.9957 51.9903 33.899 47.057 36.1627C42.1238 38.4208 38.0681 40.2903 38.0456 40.3072C38.0231 40.3297 39.6937 41.501 41.7525 42.9087C43.817 44.3165 45.5157 45.4765 45.5326 45.4878C45.5495 45.4934 46.9952 44.8458 48.7446 44.0462C50.494 43.241 51.9284 42.5878 51.9396 42.5934C51.9509 42.5934 51.9171 43.2691 51.8665 44.0913C51.8215 44.9134 51.7709 45.7581 51.754 45.9777C51.7371 46.2705 51.6809 46.4732 51.5402 46.766C51.4334 46.98 51.2252 47.3122 51.0734 47.4981C50.9159 47.6839 50.5783 48.0049 50.3196 48.2076C50.0552 48.4103 49.5996 48.7256 49.3071 48.9002C49.0146 49.0748 48.4464 49.3676 48.0414 49.5478C47.6364 49.7336 46.7533 50.1334 46.0726 50.4431C45.392 50.7528 43.6426 51.5468 42.1913 52.2113C40.74 52.8814 38.2537 53.9569 36.6787 54.6101C35.1037 55.2633 32.9886 56.1361 31.9817 56.5528C30.9748 56.9639 30.1367 57.2961 30.1086 57.2849C30.0861 57.2792 30.0692 52.2957 30.0692 46.2142V35.166C30.3954 35.0027 36.3131 32.2717 43.4288 28.9887C50.5446 25.7058 56.6197 22.8734 56.9235 22.6988C57.2329 22.5243 57.6041 22.2765 57.756 22.1414C57.936 21.9837 58.0429 21.8373 58.0822 21.6909C58.1216 21.5276 58.116 21.4375 58.0316 21.2573C57.9754 21.1334 57.8685 20.9757 57.7954 20.9082C57.7222 20.8406 51.4727 16.1105 43.907 10.395C36.3412 4.67942 30.1367 0 30.1086 0C30.0861 0 30.0748 1.93145 30.0804 4.29087Z" fill="white"/>
</svg>
