<svg width="173" height="58" viewBox="0 0 173 58" fill="none" xmlns="http://www.w3.org/2000/svg">
<path d="M26.0752 0C26.1011 0.00117732 31.474 4.05373 38.0254 9.00293C44.5776 13.9527 49.9904 18.0489 50.0537 18.1074C50.117 18.1661 50.2092 18.303 50.2578 18.4102C50.3307 18.566 50.3358 18.6439 50.3018 18.7852C50.2677 18.9119 50.1754 19.0393 50.0195 19.1758C49.888 19.2928 49.5658 19.507 49.2979 19.6582C49.0323 19.8105 43.7722 22.2631 37.6113 25.1055C31.4493 27.9483 26.3245 30.3132 26.041 30.4551V40.0234C26.041 45.2903 26.0557 49.6064 26.0752 49.6113C26.0996 49.6211 26.8253 49.3335 27.6973 48.9775C28.5693 48.6167 30.4016 47.8606 31.7656 47.2949C33.1295 46.7293 35.2822 45.7981 36.5391 45.2178C37.7956 44.6425 39.3106 43.9549 39.9004 43.6865C40.4896 43.4184 41.2545 43.0722 41.6055 42.9111C41.9562 42.7551 42.4488 42.5008 42.7021 42.3496C42.9555 42.1984 43.3502 41.9255 43.5791 41.75C43.8031 41.5745 44.095 41.2967 44.2314 41.1357C44.3629 40.9749 44.5431 40.6873 44.6357 40.502C44.7575 40.2484 44.8067 40.0719 44.8213 39.8184C44.8359 39.6275 44.88 38.8968 44.9189 38.1855C44.9628 37.4735 44.9912 36.8877 44.9814 36.8877C44.9532 36.8915 43.7183 37.4544 42.2148 38.1465C40.7099 38.8344 39.4644 39.3919 39.4336 39.3945C39.419 39.3848 37.9471 38.3803 36.1592 37.1611C34.3796 35.9443 32.9353 34.9314 32.9492 34.9082C32.9687 34.8936 36.4806 33.2739 40.7529 31.3184C45.0229 29.359 48.6753 27.7117 48.8643 27.6562C49.0494 27.5977 49.3716 27.5342 49.5713 27.5098C49.7904 27.4806 50.0483 27.4805 50.2139 27.5098C50.3698 27.5342 50.5793 27.5928 50.6768 27.6465C50.7791 27.6953 50.9348 27.8224 51.0225 27.9248C51.1053 28.0272 51.2179 28.2121 51.2666 28.334C51.3445 28.5389 51.3487 29.0224 51.3633 35.4297C51.373 40.3162 51.3642 42.4281 51.3252 42.7207C51.2911 42.9499 51.2127 43.3451 51.1494 43.5986C51.0812 43.8521 50.9303 44.2905 50.8135 44.5732C50.6917 44.856 50.4625 45.2952 50.2969 45.5488C50.1312 45.8024 49.8629 46.1535 49.6973 46.3242C49.5365 46.4949 49.2789 46.715 49.1328 46.8174C48.9867 46.9149 43.7444 49.3189 37.4893 52.1572C31.2342 54.9906 26.08 57.3017 26.041 57.2871C25.9982 57.2697 24.4609 56.1801 19.2939 52.4688L19.2451 25.7881L16.1416 23.6719C14.4366 22.5097 13.0176 21.5611 12.9854 21.5557C12.9513 21.5557 12.9316 26.0667 12.9121 48.3682L6.55469 44.0615V17.1416L3.33008 14.9473C1.56168 13.7378 0.0653065 12.7187 0.0117188 12.6797C-0.0755087 12.6114 0.14796 12.4924 6.2627 9.50977L16.1123 16.1758C21.5318 19.8365 25.9978 22.8448 26.041 22.8574C26.08 22.8672 26.8253 22.5454 27.6973 22.1357C28.5655 21.7327 29.289 21.3875 29.3145 21.3701C29.3339 21.3506 28.7013 20.7843 27.9023 20.1162C27.1084 19.4434 26.3626 18.8102 26.0361 18.5078L26.041 14.835C26.041 12.8231 26.0557 11.1618 26.0752 11.1484C26.0996 11.1387 28.2531 12.7622 30.8643 14.7617C33.472 16.7585 35.642 18.401 35.6865 18.4199C35.7255 18.4345 36.4661 18.1176 37.3281 17.7227C38.1953 17.3228 38.9023 16.9853 38.8975 16.9707C38.8769 16.9409 35.9728 14.7799 26.0654 7.43262L26.0508 3.71582C26.0459 1.67258 26.0557 0 26.0752 0ZM121.744 16.5371C121.851 16.5372 122.002 16.5763 122.085 16.625C122.163 16.6738 122.26 16.7814 122.294 16.8545C122.343 16.9694 122.352 19.8395 122.338 31.2842C122.328 44.876 122.324 45.5973 122.236 46.1094C122.188 46.4069 122.075 46.9291 121.987 47.2803C121.9 47.6265 121.749 48.1341 121.646 48.4023C121.544 48.6704 121.369 49.0745 121.257 49.3037C121.145 49.5329 120.896 49.9476 120.706 50.2305C120.521 50.5133 120.205 50.928 120.005 51.1572C119.805 51.3864 119.498 51.6935 119.327 51.8447C119.157 51.991 118.884 52.216 118.724 52.3379C118.563 52.4598 118.255 52.6691 118.041 52.8008C117.827 52.9373 117.442 53.1516 117.188 53.2783C116.935 53.4051 116.483 53.6056 116.19 53.7178C115.893 53.8348 115.367 54.005 115.021 54.0977C114.671 54.1952 114.144 54.3223 113.852 54.376C113.554 54.4296 113.043 54.5128 112.707 54.5518C112.371 54.5908 111.65 54.6397 111.1 54.6543C110.52 54.6689 109.755 54.6591 109.272 54.625C108.815 54.5957 108.138 54.5224 107.763 54.4688C107.388 54.4151 106.837 54.3173 106.545 54.249C106.248 54.1856 105.809 54.0585 105.57 53.9805C105.327 53.8976 104.942 53.732 104.279 53.4004V48.1338L104.605 48.3047C104.791 48.3973 105.171 48.5529 105.458 48.6455C105.75 48.7381 106.252 48.8702 106.578 48.9336C106.909 49.0019 107.519 49.0899 107.933 49.1338C108.493 49.1972 108.946 49.2119 109.687 49.1924C110.383 49.1778 110.855 49.1385 111.245 49.0703C111.552 49.0118 112.001 48.9091 112.244 48.8408C112.483 48.7725 112.902 48.6063 113.17 48.4795C113.438 48.3527 113.798 48.1531 113.974 48.0361C114.149 47.9192 114.446 47.6706 114.631 47.4805C114.821 47.2904 115.06 47.0028 115.167 46.8418C115.269 46.6809 115.42 46.3923 115.498 46.207C115.581 46.0168 115.684 45.6657 115.732 45.4268C115.801 45.105 115.825 44.7731 115.825 43.4033H115.703C115.611 43.4033 115.543 43.4622 115.416 43.6572C115.323 43.7987 115.089 44.0716 114.89 44.2568C114.695 44.447 114.325 44.7395 114.071 44.9102C113.818 45.0807 113.477 45.2851 113.316 45.3633C113.156 45.4462 112.838 45.588 112.609 45.6807C112.38 45.7733 111.995 45.9005 111.757 45.9639C111.513 46.0321 111.133 46.1192 110.904 46.1631C110.665 46.207 110.09 46.251 109.54 46.2656C108.951 46.2851 108.406 46.2704 108.104 46.2363C107.836 46.2022 107.397 46.1347 107.129 46.0811C106.861 46.0225 106.345 45.8807 105.984 45.7637C105.624 45.6418 105.064 45.4178 104.742 45.2617C104.421 45.1105 103.972 44.8612 103.743 44.7197C103.514 44.5783 103.119 44.3005 102.866 44.1055C102.613 43.9152 102.179 43.525 101.906 43.2471C101.629 42.974 101.293 42.6032 101.151 42.4277C101.015 42.2521 100.752 41.8814 100.567 41.5986C100.382 41.3159 100.104 40.8238 99.9434 40.502C99.7875 40.1801 99.573 39.6774 99.4658 39.3799C99.3586 39.0824 99.2029 38.5699 99.125 38.2334C99.0422 37.897 98.9403 37.4147 98.9014 37.1611C98.8624 36.9075 98.8036 36.4342 98.7744 36.1123C98.7501 35.7905 98.7256 35.2398 98.7256 34.8936C98.7256 34.5424 98.7501 33.9957 98.7744 33.6738C98.8037 33.352 98.8712 32.8159 98.9248 32.4795C98.9833 32.143 99.1057 31.5963 99.1934 31.2598C99.2859 30.9233 99.4613 30.397 99.583 30.0898C99.7048 29.7826 99.9193 29.3092 100.061 29.041C100.202 28.7728 100.45 28.3532 100.61 28.1143C100.771 27.8753 101.044 27.4997 101.215 27.2852C101.385 27.0706 101.712 26.7096 101.94 26.4805C102.169 26.2513 102.544 25.9197 102.769 25.7441C102.997 25.5638 103.368 25.3006 103.597 25.1494C103.826 25.0032 104.25 24.7596 104.547 24.6133C104.839 24.4621 105.293 24.2616 105.546 24.1641C105.799 24.0665 106.248 23.9257 106.545 23.8477C106.837 23.7697 107.265 23.6718 107.494 23.6328C107.723 23.5889 108.206 23.5351 108.566 23.5059C109 23.4766 109.448 23.4766 109.892 23.5059C110.262 23.5351 110.798 23.5987 111.085 23.6572C111.377 23.7109 111.84 23.8331 112.122 23.9258C112.405 24.0184 112.853 24.1984 113.121 24.3301C113.389 24.4569 113.803 24.6906 114.042 24.8516C114.286 25.0076 114.646 25.2961 114.846 25.4863C115.05 25.6765 115.304 25.9592 115.411 26.1104C115.552 26.3101 115.635 26.3887 115.825 26.3838V23.2617L118.567 19.9561C120.075 18.1407 121.359 16.6259 121.427 16.5908C121.495 16.5616 121.637 16.5371 121.744 16.5371ZM131.258 7.99805C131.389 7.99805 131.472 8.0325 131.682 8.25195L131.691 17.3174C131.701 22.2979 131.721 26.3781 131.74 26.3838C131.765 26.3838 131.867 26.2615 131.975 26.1104C132.082 25.9593 132.3 25.7108 132.461 25.5596C132.622 25.4084 132.895 25.1834 133.07 25.0615C133.246 24.9348 133.572 24.7254 133.801 24.5986C134.03 24.467 134.444 24.2665 134.727 24.1543C135.009 24.0421 135.448 23.8964 135.701 23.8232C135.955 23.755 136.359 23.6669 136.603 23.623C136.841 23.584 137.323 23.5303 137.674 23.5107C138.02 23.4912 138.609 23.4913 138.975 23.5156C139.345 23.5351 139.939 23.6134 140.29 23.6816C140.646 23.7499 141.191 23.8917 141.498 23.9941C141.805 24.0966 142.288 24.2814 142.57 24.4033C142.853 24.5301 143.31 24.7688 143.588 24.9346C143.866 25.1003 144.314 25.4026 144.587 25.6074C144.855 25.8122 145.279 26.178 145.518 26.4121C145.761 26.651 146.092 27.0119 146.253 27.2119C146.419 27.4118 146.702 27.7972 146.882 28.0654C147.062 28.3337 147.369 28.8804 147.563 29.2852C147.763 29.685 147.997 30.2455 148.095 30.5283C148.187 30.8112 148.333 31.3139 148.411 31.6504C148.494 31.9867 148.591 32.4984 148.635 32.7959C148.679 33.0934 148.732 33.6841 148.752 34.1133C148.776 34.5425 148.776 35.2448 148.752 35.6738C148.732 36.103 148.679 36.6928 148.635 36.9902C148.591 37.2877 148.494 37.8002 148.411 38.1367C148.333 38.4731 148.187 38.975 148.095 39.2578C147.997 39.5407 147.763 40.0972 147.563 40.502C147.369 40.9017 147.062 41.4525 146.882 41.7207C146.702 41.9889 146.419 42.3743 146.253 42.5742C146.092 42.7741 145.781 43.1106 145.566 43.3203C145.352 43.5349 145.01 43.842 144.811 44.0029C144.611 44.1639 144.236 44.4319 143.982 44.6025C143.729 44.7683 143.301 45.0177 143.033 45.1543C142.765 45.2957 142.317 45.4952 142.034 45.6025C141.752 45.7098 141.236 45.8761 140.89 45.9639C140.539 46.0565 139.993 46.1631 139.672 46.207C139.209 46.2753 138.862 46.2851 138.015 46.2656C137.114 46.2461 136.845 46.2215 136.344 46.1143C136.017 46.046 135.516 45.91 135.224 45.8125C134.936 45.7198 134.483 45.534 134.215 45.4023C133.947 45.2707 133.538 45.0368 133.305 44.8809C133.071 44.7248 132.724 44.4568 132.529 44.2812C132.335 44.1059 132.087 43.8377 131.979 43.6816C131.867 43.5305 131.765 43.4033 131.74 43.4033C131.721 43.407 131.706 43.9707 131.706 45.8906H125.13L125.125 14.7031L127.979 11.46C129.552 9.67658 130.886 8.1711 130.956 8.10547C131.034 8.03726 131.141 7.99812 131.258 7.99805ZM161.326 23.1992C161.662 23.2139 162.164 23.252 162.446 23.291C162.729 23.33 163.196 23.4278 163.493 23.501C163.785 23.579 164.249 23.7257 164.517 23.8232C164.785 23.9208 165.223 24.1154 165.491 24.252C165.759 24.3934 166.164 24.6281 166.393 24.7793C166.622 24.9257 166.982 25.1888 167.196 25.3594C167.411 25.5301 167.737 25.8128 167.922 25.9883C168.102 26.1638 168.423 26.5052 168.633 26.749C168.837 26.988 169.15 27.388 169.325 27.627C169.501 27.866 169.802 28.3296 169.992 28.6514C170.187 28.9732 170.494 29.5435 170.679 29.9189C170.859 30.2943 171.117 30.8842 171.254 31.2354C171.385 31.5805 171.511 31.9116 171.526 31.9668C171.551 32.0546 170.821 32.4356 164.624 35.5859C160.824 37.5173 157.711 39.1185 157.696 39.1553C157.696 39.1845 157.862 39.3313 158.062 39.4873C158.261 39.6384 158.646 39.8673 158.914 39.9941C159.182 40.1258 159.577 40.2774 159.791 40.3311C160.005 40.3847 160.395 40.4531 160.653 40.4775C160.965 40.5117 161.297 40.5117 161.604 40.4775C161.867 40.4532 162.247 40.3994 162.446 40.3555C162.646 40.3116 163.031 40.204 163.299 40.1162C163.567 40.0235 163.996 39.8534 164.249 39.7363C164.502 39.6193 164.921 39.3992 165.174 39.248C165.427 39.0969 165.817 38.8435 166.036 38.6777C166.26 38.5168 166.597 38.2341 166.787 38.0488C166.977 37.8685 167.269 37.5564 167.439 37.3564C167.605 37.1565 167.829 36.8582 167.937 36.6973C168.044 36.5363 168.214 36.2487 168.316 36.0635C168.419 35.8734 168.512 35.7178 168.521 35.708C168.545 35.7082 169.436 36.0133 170.519 36.3906C171.613 36.7705 172.513 37.0871 172.53 37.0977C172.545 37.1074 172.525 37.2443 172.486 37.3955C172.452 37.547 172.345 37.903 172.253 38.1855C172.16 38.4684 171.951 38.9703 171.79 39.3066C171.634 39.6431 171.356 40.1361 171.181 40.4043C171.005 40.6725 170.718 41.0775 170.538 41.3066C170.363 41.5358 169.978 41.9643 169.681 42.2617C169.388 42.5543 168.959 42.9445 168.73 43.1299C168.502 43.3103 168.097 43.6076 167.829 43.7881C167.561 43.9685 167.114 44.2472 166.831 44.4033C166.549 44.5594 166.085 44.798 165.793 44.9248C165.506 45.0516 164.994 45.256 164.648 45.373C164.307 45.4901 163.785 45.6417 163.493 45.71C163.196 45.7831 162.739 45.876 162.471 45.915C162.203 45.9589 161.579 46.0078 161.082 46.0225C160.522 46.042 159.967 46.0273 159.621 45.9932C159.314 45.959 158.792 45.8808 158.461 45.8174C158.135 45.7491 157.599 45.6073 157.268 45.4951C156.941 45.3878 156.41 45.1736 156.089 45.0176C155.767 44.8615 155.319 44.6229 155.09 44.4814C154.861 44.34 154.466 44.0662 154.213 43.876C153.96 43.6809 153.487 43.2621 153.166 42.9404C152.844 42.6186 152.381 42.0914 152.138 41.7695C151.899 41.4477 151.548 40.9303 151.363 40.623C151.178 40.3158 150.89 39.7748 150.725 39.4287C150.559 39.0777 150.326 38.522 150.204 38.1855C150.082 37.8491 149.917 37.3023 149.834 36.9658C149.751 36.6293 149.648 36.1364 149.609 35.8682C149.566 35.5997 149.521 35.0197 149.502 34.5762C149.487 34.0838 149.497 33.5621 149.531 33.2354C149.565 32.9379 149.644 32.4303 149.707 32.0986C149.775 31.7719 149.916 31.2358 150.028 30.9043C150.135 30.5776 150.374 30.0015 150.56 29.626C150.74 29.2506 151.046 28.7145 151.231 28.4316C151.421 28.1488 151.724 27.7341 151.909 27.5049C152.089 27.2805 152.44 26.8951 152.679 26.6514C152.922 26.4124 153.307 26.0613 153.531 25.8809C153.76 25.6955 154.184 25.3835 154.481 25.1885C154.774 24.9935 155.226 24.7205 155.479 24.584C155.733 24.4523 156.181 24.2372 156.479 24.1152C156.771 23.9934 157.253 23.8134 157.55 23.7207C157.842 23.628 158.34 23.5009 158.646 23.4375C158.953 23.3693 159.425 23.2959 159.693 23.2666C159.961 23.2373 160.303 23.2041 160.449 23.1943C160.596 23.1846 160.99 23.1895 161.326 23.1992ZM86.0693 23.126C86.4688 23.1211 87.0046 23.1407 87.2627 23.1699C87.5258 23.1943 87.9596 23.2618 88.2275 23.3154C88.4955 23.3691 88.997 23.506 89.3477 23.623C89.6934 23.74 90.2096 23.9445 90.4922 24.0811C90.7747 24.2176 91.3016 24.5257 91.6621 24.7646C92.0225 25.0085 92.5486 25.4076 92.8311 25.6562C93.1087 25.9098 93.5132 26.3099 93.7227 26.5537C93.9321 26.7927 94.268 27.2122 94.4629 27.4805C94.6578 27.7487 94.979 28.2318 95.1738 28.5537C95.3687 28.8756 95.6762 29.4458 95.8564 29.8213C96.0366 30.1967 96.3089 30.8208 96.46 31.2109C96.6102 31.5991 96.7223 31.9346 96.7139 31.9668C96.7041 31.9961 93.5762 33.5961 89.7715 35.5273C85.9698 37.4545 82.8614 39.0463 82.8438 39.0723C82.8438 39.0966 83.024 39.2483 83.2432 39.4092C83.4671 39.5749 83.8423 39.8038 84.0859 39.9209C84.3246 40.0379 84.7438 40.1944 85.0117 40.2627C85.4355 40.3797 85.5965 40.3945 86.2783 40.3994C86.853 40.3994 87.1747 40.3797 87.4961 40.3115C87.7348 40.2628 88.1637 40.1503 88.4463 40.0576C88.7288 39.965 89.2645 39.7409 89.6396 39.5557C90.0148 39.3703 90.5172 39.0877 90.7607 38.9316C90.9995 38.7707 91.3941 38.4773 91.6377 38.2773C91.8764 38.0773 92.2467 37.7164 92.4609 37.4775C92.6703 37.2338 92.9721 36.8394 93.1328 36.6006C93.2936 36.3616 93.4888 36.0346 93.708 35.6006L93.9121 35.6787C94.029 35.7177 94.931 36.0395 95.9248 36.3857C96.9075 36.7347 97.7217 37.021 97.7363 37.0293C97.7363 37.0342 97.6922 37.2387 97.6289 37.4775C97.5705 37.7165 97.4343 38.1361 97.3369 38.4043C97.2346 38.6725 97.0397 39.1214 96.8984 39.4043C96.7571 39.6872 96.4653 40.1801 96.251 40.502C96.0367 40.8237 95.6566 41.3256 95.3984 41.623C95.1452 41.9204 94.7652 42.3156 94.5557 42.5059C94.3414 42.696 93.9613 43.0129 93.708 43.2129C93.4548 43.4127 93.0699 43.6856 92.8555 43.8223C92.6411 43.9637 92.222 44.2082 91.9297 44.374C91.6325 44.5398 91.1742 44.7687 90.9062 44.8857C90.6383 45.0028 90.1907 45.1789 89.9082 45.2764C89.6256 45.3788 89.1428 45.5196 88.8359 45.5977C88.5292 45.6708 88.0668 45.7686 87.8135 45.8125C87.5602 45.8564 87.0431 45.9151 86.668 45.9395C86.2929 45.9687 85.7424 45.9785 85.4502 45.9639C85.1531 45.9492 84.6614 45.9003 84.3545 45.8613C84.0477 45.8175 83.4972 45.7098 83.1367 45.6172C82.7762 45.5245 82.2249 45.3495 81.918 45.2275C81.6111 45.1056 81.1733 44.9051 80.9443 44.7832C80.7154 44.6613 80.2864 44.4031 79.9941 44.208C79.697 44.0129 79.2484 43.6765 78.9951 43.4668C78.7418 43.2522 78.3471 42.8815 78.123 42.6426C77.8989 42.4036 77.5385 41.9693 77.3145 41.6719C77.0952 41.3744 76.8034 40.9596 76.6719 40.7451C76.5403 40.5305 76.3161 40.1451 76.1797 39.8916C76.0433 39.6381 75.8435 39.2194 75.7314 38.9658C75.6194 38.7122 75.4343 38.2291 75.3174 37.8926C75.2053 37.5561 75.0643 37.0729 75.001 36.8193C74.9425 36.5657 74.8642 36.1803 74.8252 35.9658C74.7911 35.7511 74.7323 35.2444 74.7031 34.8447C74.6642 34.3036 74.6642 33.9327 74.7031 33.4062C74.7324 33.0161 74.8156 32.4254 74.8838 32.0889C74.952 31.7524 75.1029 31.1821 75.2246 30.8213C75.3415 30.4605 75.5805 29.8756 75.7559 29.5293C75.9263 29.1782 76.2231 28.651 76.4229 28.3584C76.6177 28.0609 76.9203 27.6462 77.0908 27.4316C77.2663 27.217 77.6413 26.8121 77.9238 26.5293C78.2064 26.2465 78.6599 25.8513 78.9277 25.6465C79.1907 25.4417 79.5944 25.1541 79.8232 25.0078C80.0521 24.8616 80.4224 24.6425 80.6514 24.5156C80.8803 24.3937 81.2946 24.1932 81.5771 24.0762C81.8597 23.9591 82.3376 23.7792 82.6348 23.6816C82.9368 23.5841 83.3658 23.4618 83.585 23.4131C83.809 23.3595 84.2177 23.287 84.5 23.2432C84.7826 23.1993 85.0901 23.1601 85.1826 23.1504C85.2754 23.1406 85.6749 23.126 86.0693 23.126ZM78.3135 15.459V21.5557H71.3955V45.4512H64.7217L64.6973 21.5801L57.8037 21.5557V15.459H78.3135ZM137.114 29.335C136.778 29.3252 136.451 29.3252 136.383 29.3398C136.314 29.3496 136.105 29.3839 135.92 29.4131C135.735 29.4424 135.404 29.5255 135.189 29.5889C134.975 29.6572 134.59 29.8176 134.337 29.9492C134.084 30.076 133.689 30.3342 133.46 30.5146C133.231 30.6999 132.895 31.0315 132.715 31.2607C132.51 31.5143 132.281 31.8803 132.115 32.2119C131.974 32.5094 131.799 32.9583 131.735 33.2119C131.667 33.4655 131.59 33.8607 131.561 34.0898C131.536 34.3191 131.512 34.6702 131.512 34.8701C131.512 35.0701 131.536 35.4212 131.561 35.6504C131.585 35.8796 131.662 36.2846 131.73 36.5527C131.804 36.8452 131.959 37.2544 132.115 37.5762C132.281 37.9078 132.51 38.2689 132.715 38.5225C132.895 38.7516 133.231 39.0881 133.46 39.2686C133.689 39.4539 134.059 39.7033 134.288 39.8203C134.517 39.9373 134.902 40.0977 135.141 40.1807C135.379 40.2587 135.808 40.3614 136.091 40.4004C136.373 40.4443 136.748 40.4785 136.934 40.4785C137.114 40.4785 137.43 40.454 137.64 40.4248C137.844 40.3955 138.191 40.332 138.405 40.2783C138.62 40.2246 139.023 40.0681 139.306 39.9365C139.588 39.8 139.958 39.5907 140.134 39.4639C140.309 39.3371 140.612 39.0691 140.812 38.8691C141.006 38.6694 141.264 38.3622 141.381 38.1865C141.493 38.011 141.664 37.7039 141.757 37.5039C141.849 37.304 141.976 36.9959 142.029 36.8203C142.088 36.6447 142.171 36.3179 142.215 36.0889C142.273 35.8061 142.297 35.4258 142.297 34.8945C142.297 34.3532 142.273 33.9869 142.22 33.6992C142.171 33.47 142.078 33.109 142.005 32.8945C141.932 32.68 141.81 32.3728 141.732 32.2119C141.65 32.051 141.489 31.7781 141.377 31.6025C141.26 31.427 141.006 31.1199 140.812 30.9199C140.612 30.7151 140.309 30.4471 140.134 30.3252C139.958 30.1984 139.642 30.0125 139.428 29.9053C139.214 29.7981 138.902 29.6621 138.736 29.6084C138.566 29.5499 138.268 29.4716 138.078 29.4277C137.883 29.3839 137.45 29.3447 137.114 29.335ZM110.734 29.335C110.384 29.3252 109.969 29.335 109.809 29.3594C109.648 29.3886 109.34 29.4522 109.126 29.5059C108.912 29.5596 108.551 29.6858 108.322 29.7881C108.093 29.8905 107.743 30.0812 107.543 30.2129C107.343 30.3446 106.988 30.6371 106.759 30.8662C106.525 31.0953 106.238 31.4416 106.121 31.627C105.999 31.8171 105.843 32.0851 105.77 32.2266C105.701 32.3631 105.58 32.6703 105.497 32.9092C105.419 33.1432 105.322 33.5433 105.283 33.7969C105.239 34.0505 105.205 34.5483 105.205 34.8945C105.205 35.2601 105.239 35.723 105.283 35.9912C105.327 36.2447 105.414 36.6203 105.482 36.8203C105.546 37.0201 105.682 37.3616 105.784 37.5762C105.886 37.7906 106.106 38.1418 106.267 38.3564C106.422 38.571 106.696 38.8791 106.866 39.0352C107.037 39.1911 107.309 39.4103 107.47 39.5176C107.63 39.6297 107.928 39.7999 108.128 39.8975C108.328 39.995 108.668 40.1319 108.883 40.2002C109.097 40.2684 109.413 40.3516 109.589 40.3857C109.764 40.4199 110.203 40.4492 110.563 40.4492C110.924 40.4492 111.387 40.4199 111.587 40.3857C111.787 40.3516 112.128 40.2684 112.342 40.2002C112.556 40.1319 112.941 39.9715 113.194 39.8398C113.448 39.713 113.833 39.4637 114.047 39.293C114.261 39.1224 114.538 38.8641 114.66 38.7178C114.782 38.5715 114.992 38.2888 115.123 38.0889C115.25 37.889 115.43 37.5476 115.522 37.333C115.61 37.1185 115.723 36.7918 115.776 36.6016C115.825 36.4164 115.893 36.0749 115.922 35.8457C115.961 35.5726 115.976 35.1527 115.956 34.626C115.941 34.1582 115.898 33.6708 115.85 33.4561C115.806 33.2562 115.698 32.905 115.615 32.6758C115.528 32.4467 115.367 32.0955 115.25 31.8955C115.138 31.6956 114.909 31.3689 114.738 31.1689C114.573 30.969 114.261 30.6609 114.042 30.4854C113.823 30.3098 113.443 30.0613 113.189 29.9346C112.936 29.8079 112.6 29.6622 112.439 29.6084C112.279 29.5596 111.971 29.4765 111.757 29.4326C111.542 29.3888 111.085 29.3399 110.734 29.335ZM160.912 28.75C160.562 28.7403 160.147 28.7501 159.986 28.7793C159.826 28.8037 159.528 28.8712 159.328 28.9248C159.128 28.9833 158.763 29.1154 158.524 29.2227C158.286 29.3251 157.876 29.5491 157.623 29.7197C157.37 29.8904 156.975 30.2122 156.751 30.4365C156.527 30.6607 156.23 31.0217 156.084 31.2363C155.943 31.4508 155.743 31.8264 155.646 32.0654C155.548 32.3043 155.422 32.7142 155.373 32.9678C155.295 33.3482 155.28 33.5534 155.3 34.0898C155.314 34.4507 155.339 34.797 155.354 34.8604C155.368 34.9184 155.397 34.9671 155.416 34.9678C155.44 34.9678 157.428 33.9682 159.84 32.7441C162.251 31.5201 164.244 30.5 164.273 30.4805C164.301 30.4547 164.169 30.2846 163.932 30.0518C163.717 29.8372 163.376 29.5594 163.177 29.4277C162.977 29.301 162.68 29.1396 162.52 29.0762C162.359 29.0079 162.071 28.915 161.886 28.8613C161.662 28.798 161.331 28.7646 160.912 28.75ZM85.5967 28.6572C85.5139 28.667 85.2847 28.7012 85.085 28.7305C84.8853 28.7597 84.5346 28.8468 84.3057 28.9199C84.0767 28.9931 83.7065 29.1496 83.4775 29.2617C83.2486 29.3788 82.9411 29.549 82.7949 29.6514C82.6488 29.7489 82.3863 29.9543 82.2109 30.1006C82.0356 30.2469 81.7427 30.5491 81.5625 30.7783C81.3531 31.0319 81.1295 31.393 80.9688 31.7246C80.8129 32.0367 80.662 32.4368 80.6035 32.6758C80.5499 32.905 80.4912 33.2758 80.4766 33.5049C80.4571 33.7341 80.4669 34.1431 80.501 34.4209C80.5302 34.694 80.5645 34.9189 80.5791 34.9189C80.609 34.9112 82.6001 33.9047 85.0264 32.6709C87.4559 31.4378 89.4528 30.4191 89.4697 30.4082C89.4843 30.3936 89.406 30.2811 89.2988 30.1543C89.1917 30.0275 88.9478 29.7986 88.7627 29.6426C88.5727 29.4865 88.2074 29.2518 87.9346 29.1201C87.6667 28.9885 87.316 28.8476 87.1553 28.8037C86.9945 28.7647 86.6635 28.706 86.4248 28.6768C86.1861 28.6524 85.9325 28.6328 85.8643 28.6377C85.7961 28.6377 85.6794 28.6523 85.5967 28.6572Z" fill="#2E3178"/>
</svg>
