<svg width="60" height="67" viewBox="0 0 60 67" fill="none" xmlns="http://www.w3.org/2000/svg">
<path d="M30.1085 0C30.1367 0 36.3416 4.679 43.9074 10.3945C51.4667 16.1052 57.7114 20.8327 57.7951 20.9082C57.8681 20.9757 57.9751 21.133 58.0314 21.2568C58.1157 21.4369 58.1215 21.5274 58.0822 21.6904C58.0428 21.8368 57.936 21.9839 57.756 22.1416C57.604 22.2768 57.2332 22.5247 56.924 22.6992C56.6202 22.8738 50.5446 25.7054 43.4289 28.9883C36.3142 32.2707 30.3975 35.0019 30.0695 35.166V46.2139C30.0695 52.294 30.0861 57.2772 30.1085 57.2852C30.1367 57.2964 30.9748 56.9638 31.9816 56.5527C32.9885 56.136 35.1038 55.2636 36.6789 54.6104C38.2539 53.9571 40.7403 52.881 42.1916 52.2109C43.6425 51.5466 45.3916 50.7532 46.0724 50.4434C46.7529 50.1337 47.636 49.7337 48.0412 49.5479C48.446 49.3677 49.0142 49.075 49.3068 48.9004C49.5992 48.7259 50.055 48.4107 50.3195 48.208C50.5782 48.0053 50.9159 47.6839 51.0734 47.498C51.2253 47.3122 51.4333 46.9796 51.5402 46.7656C51.6807 46.473 51.7372 46.2703 51.7541 45.9775C51.7709 45.7577 51.8214 44.9128 51.8664 44.0908C51.917 43.2689 51.9508 42.5938 51.9396 42.5938C51.9283 42.5881 50.4937 43.2407 48.7443 44.0459C46.995 44.8455 45.5492 45.4929 45.5324 45.4873C45.4963 45.4629 43.8053 44.3086 41.7531 42.9092C39.6989 41.5046 38.0312 40.3353 38.046 40.3076C38.0717 40.2893 42.1257 38.4202 47.0568 36.1631C51.99 33.8994 56.2092 31.9955 56.423 31.9336C56.6367 31.866 57.0078 31.7928 57.2384 31.7646C57.4913 31.7309 57.7893 31.731 57.9806 31.7646C58.1606 31.7928 58.4033 31.8609 58.5158 31.9229C58.6339 31.9793 58.814 32.125 58.9152 32.2432C59.0108 32.3614 59.1402 32.576 59.1964 32.7168C59.2863 32.9535 59.2919 33.5146 59.3087 40.9102C59.32 46.5518 59.3088 48.99 59.2638 49.3281C59.2244 49.5928 59.1338 50.049 59.0607 50.3418C58.9819 50.6346 58.808 51.1412 58.673 51.4678C58.5324 51.7943 58.2676 52.3009 58.0763 52.5938C57.8851 52.8865 57.5762 53.2921 57.3849 53.4893C57.1993 53.6863 56.9013 53.9403 56.7326 54.0586C56.5638 54.1712 50.5109 56.9473 43.2882 60.2246C36.0759 63.4916 30.1311 66.1577 30.0695 66.1484C30.0245 66.1315 28.2522 64.8758 22.2785 60.585L22.2218 29.7773L18.6388 27.333C16.6715 25.992 15.0337 24.8974 14.9943 24.8896C14.9549 24.8896 14.9318 30.098 14.9093 55.8486L7.5685 50.877V19.793L3.84487 17.2588C1.80308 15.8624 0.0756896 14.6857 0.0138163 14.6406C-0.0864206 14.5617 0.175224 14.4224 7.23159 10.9805L18.6056 18.6787C24.8662 22.9075 30.0245 26.3813 30.0695 26.3926C30.116 26.4031 30.9758 26.0321 31.9816 25.5596C32.9885 25.0922 33.8273 24.6927 33.8498 24.6758C33.8723 24.6533 33.1404 23.9999 32.2179 23.2285C31.3011 22.4515 30.4405 21.7193 30.0636 21.3701L30.0695 17.1299C30.0695 14.815 30.0862 12.9017 30.1085 12.873C30.1367 12.8618 32.6229 14.7363 35.6378 17.0449C38.6529 19.3537 41.1622 21.2517 41.2072 21.2686C41.2539 21.2846 42.1081 20.9185 43.1027 20.4629C44.1039 20.0012 44.9198 19.6126 44.9142 19.5957C44.8947 19.5645 41.5448 17.0711 30.0978 8.58203L30.0802 4.29102C30.0746 1.93561 30.0861 0.00654628 30.1085 0Z" fill="#F1D95D"/>
</svg>
