<svg width="200" height="67" viewBox="0 0 200 67" fill="none" xmlns="http://www.w3.org/2000/svg">
<path d="M30.108 0C30.1361 0 36.341 4.67901 43.9068 10.3945C51.4655 16.1047 57.7099 20.832 57.7945 20.9082C57.8675 20.9757 57.9745 21.133 58.0308 21.2568C58.1151 21.4369 58.1209 21.5274 58.0816 21.6904C58.0422 21.8368 57.9354 21.9839 57.7554 22.1416C57.6034 22.2768 57.2326 22.5247 56.9234 22.6992C56.6196 22.8738 50.544 25.7054 43.4283 28.9883C36.3134 32.2708 30.3966 35.0021 30.0689 35.166V46.2139C30.0689 52.2929 30.0855 57.2755 30.108 57.2852C30.1361 57.2964 30.9742 56.9638 31.981 56.5527C32.9879 56.136 35.1032 55.2636 36.6783 54.6104C38.2533 53.9571 40.7397 52.881 42.191 52.2109C43.6419 51.5466 45.3909 50.7532 46.0718 50.4434C46.7523 50.1337 47.6354 49.7337 48.0406 49.5479C48.4454 49.3677 49.0136 49.075 49.3062 48.9004C49.5986 48.7259 50.0545 48.4107 50.3189 48.208C50.5776 48.0053 50.9153 47.6839 51.0728 47.498C51.2247 47.3122 51.4327 46.9796 51.5396 46.7656C51.6801 46.4729 51.7366 46.2703 51.7535 45.9775C51.7703 45.7577 51.8208 44.9128 51.8658 44.0908C51.9164 43.2689 51.9503 42.5938 51.939 42.5938C51.9198 42.5918 50.4882 43.2429 48.7437 44.0459C46.9944 44.8455 45.5487 45.4929 45.5318 45.4873C45.4949 45.4624 43.8043 44.3083 41.7525 42.9092C39.6996 41.5054 38.0327 40.3366 38.0455 40.3076C38.068 40.2907 42.1232 38.4211 47.0562 36.1631C51.9894 33.8994 56.2087 31.9955 56.4224 31.9336C56.6361 31.866 57.0072 31.7928 57.2378 31.7646C57.491 31.7309 57.7897 31.7309 57.981 31.7646C58.161 31.7928 58.4028 31.861 58.5152 31.9229C58.6333 31.9793 58.8134 32.125 58.9146 32.2432C59.0102 32.3614 59.1396 32.576 59.1958 32.7168C59.2857 32.9535 59.2913 33.5145 59.3081 40.9102C59.3194 46.5518 59.3082 48.99 59.2632 49.3281C59.2239 49.5928 59.1332 50.049 59.0601 50.3418C58.9813 50.6346 58.8074 51.1412 58.6724 51.4678C58.5318 51.7943 58.267 52.3009 58.0757 52.5938C57.8845 52.8865 57.5756 53.2921 57.3843 53.4893C57.1987 53.6863 56.9007 53.9403 56.732 54.0586C56.563 54.1713 50.5101 56.9474 43.2876 60.2246C36.0741 63.4922 30.1285 66.1587 30.0689 66.1484C30.0239 66.1315 28.2517 64.8758 22.2779 60.585L22.2212 29.7773L18.6382 27.333C16.6703 25.9916 15.032 24.8966 14.9937 24.8896C14.9543 24.8896 14.9312 30.098 14.9087 55.8486L7.56791 50.877V19.793L3.84428 17.2588C1.80487 15.864 0.0798497 14.6882 0.0142032 14.6406C-0.0870488 14.5618 0.165858 14.4267 7.231 10.9805L18.605 18.6787C24.8656 22.9075 30.0239 26.3813 30.0689 26.3926C30.115 26.4033 30.9749 26.0322 31.981 25.5596C32.9879 25.0922 33.8267 24.6927 33.8492 24.6758C33.8717 24.6533 33.1398 24 32.2173 23.2285C31.3005 22.4515 30.4399 21.7193 30.063 21.3701L30.0689 17.1299C30.0689 14.8155 30.0856 12.9026 30.108 12.873C30.1361 12.8618 32.6224 14.7363 35.6373 17.0449C38.6523 19.3537 41.1616 21.2517 41.2066 21.2686C41.2529 21.2848 42.1073 20.9186 43.1021 20.4629C44.1033 20.0012 44.9192 19.6126 44.9136 19.5957C44.8932 19.5638 41.5427 17.07 30.0972 8.58203L30.0796 4.29102C30.074 1.9367 30.0855 0.00832312 30.108 0ZM140.574 19.0947C140.698 19.0947 140.873 19.14 140.968 19.1963C141.058 19.2527 141.17 19.3766 141.21 19.4609C141.266 19.5905 141.277 22.9015 141.26 36.123C141.249 51.8225 141.243 52.6509 141.142 53.2422C141.086 53.5857 140.956 54.1875 140.855 54.5928C140.754 54.9926 140.58 55.579 140.461 55.8887C140.343 56.1983 140.141 56.6651 140.011 56.9297C139.882 57.1943 139.595 57.6734 139.376 58C139.162 58.3266 138.797 58.8057 138.566 59.0703C138.335 59.335 137.981 59.6897 137.784 59.8643C137.587 60.0332 137.272 60.2919 137.086 60.4326C136.901 60.5734 136.547 60.8157 136.299 60.9678C136.052 61.1254 135.607 61.3731 135.315 61.5195C135.023 61.6659 134.499 61.8968 134.162 62.0264C133.819 62.1615 133.21 62.3588 132.811 62.4658C132.406 62.5784 131.799 62.7242 131.461 62.7861C131.118 62.8481 130.527 62.9442 130.139 62.9893C129.751 63.0343 128.918 63.0905 128.283 63.1074C127.613 63.1243 126.73 63.1127 126.173 63.0732C125.645 63.0394 124.863 62.9555 124.43 62.8936C123.997 62.8316 123.362 62.7185 123.024 62.6396C122.681 62.5665 122.175 62.4202 121.899 62.3301C121.618 62.2343 121.173 62.0431 120.408 61.6602V55.5791L120.785 55.7754C120.998 55.8824 121.437 56.0629 121.769 56.1699C122.107 56.2769 122.686 56.4287 123.063 56.502C123.445 56.5808 124.148 56.6827 124.627 56.7334C125.273 56.8066 125.797 56.8233 126.652 56.8008C127.456 56.7839 128.002 56.739 128.452 56.6602C128.806 56.5926 129.324 56.4743 129.605 56.3955C129.881 56.3167 130.365 56.1249 130.674 55.9785C130.984 55.8321 131.4 55.6009 131.602 55.4658C131.805 55.3306 132.148 55.0438 132.362 54.8242C132.581 54.6046 132.856 54.2717 132.98 54.0859C133.098 53.9001 133.273 53.5684 133.363 53.3545C133.458 53.1349 133.576 52.729 133.632 52.4531C133.711 52.0815 133.74 51.6983 133.74 50.1162H133.599C133.492 50.1162 133.413 50.184 133.267 50.4092C133.16 50.5724 132.89 50.8876 132.66 51.1016C132.435 51.3212 132.007 51.6594 131.714 51.8564C131.422 52.0535 131.028 52.2898 130.842 52.3799C130.657 52.4756 130.291 52.6391 130.027 52.7461C129.763 52.8531 129.318 53 129.043 53.0732C128.761 53.1521 128.322 53.253 128.058 53.3037C127.782 53.3544 127.119 53.405 126.483 53.4219C125.802 53.4444 125.172 53.4271 124.824 53.3877C124.514 53.3483 124.008 53.2699 123.699 53.208C123.389 53.1404 122.793 52.9769 122.377 52.8418C121.96 52.701 121.314 52.4419 120.943 52.2617C120.572 52.0872 120.054 51.8 119.79 51.6367C119.525 51.4735 119.069 51.153 118.777 50.9277C118.484 50.7081 117.984 50.2575 117.669 49.9365C117.348 49.6212 116.96 49.193 116.796 48.9902C116.639 48.7875 116.335 48.3597 116.122 48.0332C115.908 47.7066 115.588 47.1373 115.402 46.7656C115.222 46.394 114.974 45.8141 114.85 45.4707C114.726 45.1272 114.547 44.5359 114.457 44.1475C114.361 43.7591 114.243 43.2021 114.198 42.9092C114.153 42.6164 114.085 42.0699 114.051 41.6982C114.023 41.3266 113.996 40.6898 113.996 40.29C113.996 39.8847 114.023 39.2544 114.051 38.8828C114.085 38.5112 114.164 37.8915 114.226 37.5029C114.294 37.1144 114.434 36.4833 114.536 36.0947C114.643 35.7062 114.845 35.0988 114.986 34.7441C115.126 34.3894 115.374 33.8429 115.537 33.5332C115.7 33.2235 115.987 32.7388 116.172 32.4629C116.358 32.187 116.673 31.7536 116.87 31.5059C117.066 31.2582 117.443 30.8418 117.708 30.5771C117.972 30.3125 118.406 29.9293 118.665 29.7266C118.929 29.5182 119.356 29.2136 119.621 29.0391C119.885 28.8701 120.374 28.5888 120.717 28.4199C121.055 28.2454 121.578 28.015 121.871 27.9023C122.163 27.7897 122.681 27.6262 123.024 27.5361C123.361 27.446 123.856 27.3331 124.121 27.2881C124.385 27.2374 124.942 27.1754 125.358 27.1416C125.859 27.1078 126.376 27.1078 126.888 27.1416C127.316 27.1754 127.934 27.2488 128.266 27.3164C128.604 27.3783 129.138 27.519 129.464 27.626C129.791 27.733 130.308 27.9417 130.618 28.0938C130.927 28.2402 131.406 28.5105 131.681 28.6963C131.962 28.8765 132.378 29.2082 132.609 29.4277C132.845 29.6472 133.137 29.9738 133.261 30.1484C133.424 30.3793 133.52 30.4695 133.74 30.4639V26.8604L136.907 23.042C138.65 20.9423 140.135 19.1919 140.209 19.1572C140.287 19.1235 140.45 19.0948 140.574 19.0947ZM151.56 9.23535C151.712 9.23538 151.808 9.27422 152.049 9.52734L152.06 19.9961C152.071 25.7347 152.094 30.4372 152.117 30.4639C152.145 30.4639 152.263 30.323 152.387 30.1484C152.511 29.9738 152.764 29.6871 152.95 29.5127C153.135 29.3381 153.45 29.0792 153.653 28.9385C153.855 28.7921 154.232 28.5497 154.497 28.4033C154.761 28.2513 155.239 28.0201 155.565 27.8906C155.891 27.7611 156.397 27.5923 156.69 27.5078C156.982 27.429 157.45 27.328 157.731 27.2773C158.007 27.2323 158.563 27.17 158.968 27.1475C159.368 27.1249 160.048 27.1252 160.47 27.1533C160.898 27.1759 161.584 27.2659 161.989 27.3447C162.399 27.4236 163.03 27.5868 163.384 27.7051C163.739 27.8234 164.295 28.037 164.622 28.1777C164.948 28.3242 165.477 28.6006 165.797 28.792C166.118 28.9834 166.635 29.332 166.95 29.5684C167.259 29.8049 167.749 30.2278 168.025 30.498C168.306 30.7738 168.688 31.19 168.874 31.4209C169.065 31.6518 169.392 32.0975 169.6 32.4072C169.808 32.7171 170.162 33.3473 170.387 33.8145C170.618 34.2762 170.888 34.9244 171.001 35.251C171.107 35.5777 171.276 36.1576 171.366 36.5459C171.461 36.9344 171.574 37.5257 171.625 37.8691C171.675 38.2127 171.737 38.8942 171.759 39.3896C171.787 39.8852 171.787 40.696 171.759 41.1914C171.737 41.6869 171.675 42.3685 171.625 42.7119C171.574 43.0554 171.461 43.6467 171.366 44.0352C171.276 44.4237 171.107 45.0035 171.001 45.3301C170.888 45.6566 170.618 46.2983 170.387 46.7656C170.162 47.2273 169.808 47.864 169.6 48.1738C169.392 48.4835 169.065 48.9283 168.874 49.1592C168.688 49.3901 168.328 49.7784 168.081 50.0205C167.833 50.2683 167.439 50.6237 167.209 50.8096C166.978 50.9954 166.545 51.305 166.252 51.502C165.96 51.6934 165.465 51.9801 165.156 52.1377C164.846 52.301 164.329 52.5324 164.002 52.6562C163.676 52.7801 163.08 52.9719 162.681 53.0732C162.276 53.1802 161.646 53.3038 161.275 53.3545C160.741 53.4333 160.341 53.4444 159.362 53.4219C158.321 53.3994 158.012 53.3709 157.432 53.2471C157.055 53.1682 156.477 53.011 156.139 52.8984C155.807 52.7914 155.284 52.5768 154.974 52.4248C154.665 52.2727 154.192 52.0024 153.922 51.8223C153.652 51.642 153.253 51.3325 153.028 51.1299C152.803 50.9272 152.516 50.6176 152.392 50.4375C152.263 50.263 152.145 50.1162 152.117 50.1162C152.094 50.1173 152.078 50.766 152.078 52.9883H144.484L144.478 16.9775L147.774 13.2334C149.591 11.1724 151.133 9.4316 151.211 9.3584C151.301 9.27977 151.425 9.23535 151.56 9.23535ZM186.278 26.7871C186.666 26.804 187.246 26.8485 187.572 26.8936C187.898 26.9386 188.439 27.0513 188.782 27.1357C189.119 27.2259 189.653 27.3952 189.962 27.5078C190.272 27.6204 190.778 27.8453 191.087 28.0029C191.397 28.1662 191.864 28.4368 192.128 28.6113C192.393 28.7802 192.809 29.0842 193.056 29.2812C193.304 29.4782 193.68 29.8051 193.894 30.0078C194.102 30.2105 194.473 30.6052 194.715 30.8867C194.952 31.1626 195.312 31.6245 195.514 31.9004C195.717 32.1763 196.066 32.7114 196.286 33.083C196.511 33.4548 196.865 34.1135 197.079 34.5469C197.287 34.9805 197.584 35.6621 197.742 36.0674C197.894 36.4671 198.04 36.8502 198.057 36.9121C198.083 37.0143 197.231 37.4575 190.086 41.0898C185.688 43.3254 182.087 45.1781 182.087 45.2119C182.088 45.2459 182.279 45.4147 182.509 45.5947C182.74 45.7693 183.184 46.0343 183.494 46.1807C183.803 46.3327 184.259 46.5074 184.506 46.5693C184.754 46.6312 185.203 46.7101 185.502 46.7383C185.862 46.7777 186.245 46.7777 186.599 46.7383C186.903 46.7101 187.341 46.6473 187.572 46.5967C187.802 46.546 188.247 46.4226 188.556 46.3213C188.866 46.2143 189.36 46.017 189.653 45.8818C189.945 45.7467 190.43 45.4929 190.722 45.3184C191.015 45.1438 191.464 44.8515 191.717 44.6602C191.976 44.4744 192.364 44.1476 192.584 43.9336C192.803 43.7252 193.141 43.3647 193.337 43.1338C193.529 42.9029 193.788 42.5599 193.912 42.374C194.035 42.1882 194.232 41.8556 194.35 41.6416C194.468 41.422 194.575 41.2417 194.586 41.2305C194.603 41.2266 195.636 41.5804 196.893 42.0186C198.159 42.4577 199.199 42.8247 199.216 42.8359C199.232 42.85 199.21 43.006 199.166 43.1787C199.126 43.3532 199.002 43.7643 198.895 44.0908C198.788 44.4174 198.547 44.9982 198.361 45.3867C198.181 45.7752 197.86 46.3437 197.658 46.6533C197.455 46.963 197.124 47.4306 196.916 47.6953C196.713 47.96 196.268 48.4553 195.925 48.7988C195.588 49.1365 195.093 49.5867 194.829 49.8008C194.564 50.0091 194.097 50.3532 193.788 50.5615C193.478 50.7699 192.961 51.0903 192.634 51.2705C192.308 51.4507 191.774 51.7266 191.436 51.873C191.104 52.0194 190.514 52.2565 190.115 52.3916C189.721 52.5267 189.119 52.7014 188.782 52.7803C188.439 52.8647 187.91 52.9715 187.6 53.0166C187.291 53.0673 186.57 53.1237 185.997 53.1406C185.35 53.1631 184.708 53.1459 184.309 53.1064C183.955 53.067 183.353 52.9775 182.97 52.9043C182.593 52.8254 181.975 52.6617 181.592 52.5322C181.215 52.4083 180.602 52.1607 180.231 51.9805C179.86 51.8003 179.342 51.5246 179.078 51.3613C178.813 51.198 178.357 50.8827 178.065 50.6631C177.772 50.4378 177.227 49.9536 176.856 49.582C176.485 49.2105 175.951 48.6022 175.669 48.2305C175.394 47.859 174.989 47.262 174.775 46.9072C174.561 46.5525 174.229 45.9272 174.038 45.5273C173.846 45.1219 173.577 44.4794 173.436 44.0908C173.295 43.7023 173.104 43.072 173.008 42.6836C172.913 42.2952 172.795 41.7268 172.75 41.417C172.699 41.1073 172.648 40.4363 172.626 39.9238C172.609 39.3553 172.62 38.7532 172.66 38.376C172.699 38.0325 172.789 37.4464 172.862 37.0635C172.941 36.6862 173.105 36.0665 173.234 35.6836C173.358 35.3063 173.633 34.6424 173.846 34.209C174.054 33.7754 174.409 33.1557 174.623 32.8291C174.842 32.5025 175.191 32.0234 175.405 31.7588C175.613 31.4997 176.018 31.0549 176.294 30.7734C176.575 30.4975 177.019 30.0921 177.278 29.8838C177.542 29.6698 178.031 29.3092 178.375 29.084C178.712 28.8587 179.235 28.5434 179.528 28.3857C179.82 28.2337 180.338 27.9865 180.681 27.8457C181.019 27.705 181.575 27.4967 181.919 27.3896C182.256 27.2827 182.83 27.1357 183.184 27.0625C183.539 26.9837 184.085 26.9 184.394 26.8662C184.703 26.8325 185.096 26.7925 185.265 26.7812C185.434 26.77 185.89 26.7759 186.278 26.7871ZM99.3814 26.7021C99.8425 26.6965 100.461 26.7192 100.759 26.7529C101.063 26.7811 101.564 26.8599 101.874 26.9219C102.183 26.9838 102.763 27.1422 103.168 27.2773C103.567 27.4125 104.163 27.649 104.489 27.8066C104.815 27.9643 105.423 28.3188 105.839 28.5947C106.256 28.8763 106.863 29.3379 107.189 29.625C107.51 29.9178 107.976 30.3796 108.218 30.6611C108.46 30.9371 108.849 31.4217 109.074 31.7314C109.299 32.0412 109.67 32.5982 109.895 32.9697C110.12 33.3413 110.474 34 110.682 34.4336C110.89 34.8672 111.205 35.5886 111.379 36.0391C111.554 36.4895 111.684 36.8783 111.672 36.9121C111.645 36.9541 108.04 38.7977 103.657 41.0225C99.2579 43.2524 95.6634 45.0937 95.6578 45.1162C95.6582 45.1446 95.8658 45.3193 96.1187 45.5049C96.3775 45.6963 96.8111 45.9606 97.0923 46.0957C97.368 46.2308 97.8514 46.4114 98.1607 46.4902C98.6501 46.6254 98.8361 46.6418 99.6236 46.6475C100.287 46.6475 100.659 46.6257 101.03 46.5469C101.305 46.4905 101.8 46.3609 102.127 46.2539C102.453 46.1469 103.071 45.8878 103.504 45.6738C103.938 45.4599 104.517 45.1333 104.798 44.9531C105.074 44.7673 105.53 44.4291 105.811 44.1982C106.087 43.9673 106.514 43.5503 106.761 43.2744C107.003 42.9929 107.352 42.5366 107.538 42.2607C107.723 41.9848 107.949 41.6075 108.202 41.1064L108.438 41.1973C108.574 41.2428 109.615 41.6142 110.761 42.0137C111.894 42.416 112.834 42.7464 112.853 42.7568C112.852 42.7658 112.803 43.0007 112.73 43.2744C112.663 43.5503 112.505 44.035 112.392 44.3447C112.274 44.6544 112.049 45.1724 111.886 45.499C111.723 45.8255 111.386 46.394 111.138 46.7656C110.891 47.1373 110.452 47.718 110.154 48.0615C109.861 48.405 109.422 48.8604 109.18 49.0801C108.933 49.2996 108.494 49.6656 108.202 49.8965C107.909 50.1273 107.465 50.4429 107.217 50.6006C106.97 50.7639 106.485 51.0458 106.148 51.2373C105.805 51.4287 105.277 51.693 104.967 51.8281C104.658 51.9633 104.14 52.1667 103.814 52.2793C103.488 52.3975 102.931 52.5603 102.577 52.6504C102.222 52.7349 101.688 52.8478 101.395 52.8984C101.103 52.9491 100.506 53.0168 100.073 53.0449C99.6397 53.0787 99.0039 53.0901 98.6665 53.0732C98.3234 53.0563 97.7552 52.9991 97.4009 52.9541C97.0464 52.9034 96.4107 52.7798 95.9947 52.6729C95.5784 52.5658 94.9427 52.3634 94.5884 52.2227C94.2341 52.0819 93.7277 51.8507 93.4634 51.71C93.199 51.5691 92.7041 51.271 92.3667 51.0459C92.0236 50.8207 91.5059 50.4316 91.2134 50.1895C90.9209 49.9416 90.4653 49.5141 90.2066 49.2383C89.9478 48.9624 89.5317 48.4607 89.273 48.1172C89.02 47.7739 88.6827 47.2957 88.5308 47.0479C88.379 46.8002 88.12 46.3553 87.9624 46.0625C87.8049 45.7697 87.5742 45.285 87.4449 44.9922C87.3155 44.6994 87.1013 44.1415 86.9664 43.7529C86.837 43.3644 86.6742 42.8073 86.6011 42.5146C86.5336 42.2219 86.444 41.7771 86.399 41.5293C86.3596 41.2816 86.2921 40.6961 86.2583 40.2344C86.2134 39.6095 86.2134 39.1812 86.2583 38.5732C86.2921 38.1229 86.3876 37.4413 86.4664 37.0527C86.5451 36.6642 86.7193 36.0046 86.8599 35.5879C86.995 35.1712 87.2708 34.4954 87.4732 34.0957C87.67 33.6904 88.0131 33.0829 88.2437 32.7451C88.4687 32.4017 88.8173 31.9226 89.0142 31.6748C89.2167 31.427 89.6499 30.9594 89.9761 30.6328C90.3024 30.3062 90.8259 29.8507 91.1353 29.6143C91.4391 29.3778 91.9061 29.0449 92.1705 28.876C92.4349 28.707 92.8623 28.454 93.1265 28.3076C93.3909 28.1669 93.8687 27.9359 94.1949 27.8008C94.5211 27.6657 95.0724 27.4574 95.4156 27.3447C95.7642 27.2322 96.259 27.0915 96.5123 27.0352C96.7709 26.9732 97.2436 26.8886 97.5699 26.8379C97.8961 26.7872 98.2511 26.7417 98.358 26.7305C98.4655 26.7192 98.9263 26.7021 99.3814 26.7021ZM90.4263 17.8506V24.8896H82.439V52.4814H74.732L74.7037 24.917L66.7447 24.8896V17.8506H90.4263ZM158.325 33.8721C157.937 33.8608 157.561 33.8611 157.481 33.8779C157.402 33.8892 157.16 33.9291 156.946 33.9629C156.732 33.9967 156.349 34.0919 156.102 34.165C155.855 34.2439 155.41 34.43 155.118 34.582C154.825 34.7285 154.369 35.0271 154.105 35.2354C153.841 35.4494 153.453 35.8322 153.245 36.0967C153.009 36.3894 152.744 36.8116 152.553 37.1943C152.39 37.5377 152.187 38.0558 152.114 38.3486C152.035 38.6413 151.945 39.0976 151.912 39.3623C151.884 39.627 151.855 40.0328 151.855 40.2637C151.855 40.4946 151.884 40.9004 151.912 41.165C151.94 41.4297 152.03 41.8965 152.109 42.2061C152.193 42.5439 152.373 43.017 152.553 43.3887C152.745 43.7716 153.008 44.1886 153.245 44.4814C153.453 44.746 153.841 45.1344 154.105 45.3428C154.369 45.5568 154.798 45.8443 155.062 45.9795C155.326 46.1146 155.771 46.2998 156.046 46.3955C156.322 46.4856 156.817 46.6044 157.143 46.6494C157.469 46.7001 157.902 46.7392 158.116 46.7393C158.324 46.7393 158.69 46.7115 158.932 46.6777C159.168 46.6439 159.568 46.5707 159.815 46.5088C160.062 46.4468 160.53 46.2663 160.856 46.1143C161.182 45.9566 161.61 45.7147 161.812 45.5684C162.015 45.422 162.363 45.1117 162.593 44.8809C162.818 44.6501 163.116 44.2955 163.252 44.0928C163.381 43.8901 163.578 43.5356 163.685 43.3047C163.792 43.0738 163.939 42.7183 164.001 42.5156C164.068 42.3128 164.163 41.9353 164.213 41.6709C164.281 41.3444 164.309 40.9054 164.309 40.292C164.309 39.6669 164.281 39.2443 164.219 38.9121C164.163 38.6476 164.057 38.2312 163.972 37.9834C163.888 37.7356 163.747 37.3802 163.657 37.1943C163.561 37.0086 163.376 36.6938 163.247 36.4912C163.112 36.2885 162.818 35.933 162.593 35.7021C162.363 35.4658 162.014 35.1564 161.812 35.0156C161.61 34.8693 161.244 34.6552 160.997 34.5312C160.749 34.4074 160.389 34.2495 160.198 34.1875C160.001 34.1199 159.657 34.0302 159.438 33.9795C159.213 33.9288 158.713 33.8834 158.325 33.8721ZM127.865 33.8721C127.46 33.8608 126.981 33.8722 126.795 33.9004C126.61 33.9342 126.256 34.0074 126.008 34.0693C125.761 34.1313 125.344 34.2782 125.08 34.3965C124.815 34.5147 124.411 34.7338 124.18 34.8857C123.95 35.0378 123.538 35.376 123.274 35.6406C123.004 35.9051 122.673 36.3045 122.538 36.5186C122.397 36.7382 122.217 37.0486 122.132 37.2119C122.054 37.3697 121.913 37.7242 121.817 38C121.727 38.2702 121.615 38.7317 121.57 39.0244C121.519 39.3172 121.48 39.8922 121.48 40.292C121.48 40.7142 121.519 41.2489 121.57 41.5586C121.62 41.8512 121.722 42.2847 121.8 42.5156C121.873 42.7464 122.031 43.1409 122.149 43.3887C122.267 43.6364 122.521 44.0423 122.707 44.29C122.887 44.5377 123.201 44.8921 123.398 45.0723C123.595 45.2524 123.91 45.5059 124.095 45.6299C124.281 45.7594 124.624 45.9567 124.855 46.0693C125.086 46.182 125.48 46.3391 125.727 46.418C125.975 46.4968 126.34 46.5934 126.543 46.6328C126.745 46.6722 127.251 46.7051 127.668 46.7051C128.084 46.7051 128.619 46.6722 128.849 46.6328C129.08 46.5934 129.473 46.4968 129.72 46.418C129.968 46.3392 130.412 46.154 130.705 46.002C130.997 45.8556 131.441 45.5682 131.689 45.3711C131.937 45.174 132.257 44.875 132.398 44.7061C132.539 44.5372 132.78 44.2112 132.932 43.9805C133.078 43.7496 133.287 43.3552 133.394 43.1074C133.495 42.8597 133.624 42.4823 133.686 42.2627C133.742 42.0487 133.821 41.6543 133.855 41.3896C133.9 41.0744 133.917 40.5903 133.894 39.9824C133.877 39.4421 133.827 38.8788 133.771 38.6309C133.72 38.4 133.596 37.9942 133.501 37.7295C133.399 37.4649 133.214 37.06 133.079 36.8291C132.949 36.5982 132.685 36.2201 132.488 35.9893C132.297 35.7584 131.937 35.4038 131.684 35.2012C131.431 34.9986 130.992 34.7119 130.7 34.5654C130.407 34.4191 130.019 34.2495 129.834 34.1875C129.648 34.1312 129.293 34.036 129.045 33.9854C128.798 33.9347 128.27 33.8777 127.865 33.8721ZM185.803 33.1963C185.398 33.185 184.92 33.1967 184.734 33.2305C184.548 33.2587 184.206 33.3375 183.975 33.3994C183.745 33.467 183.322 33.6193 183.046 33.7432C182.771 33.8615 182.299 34.1204 182.006 34.3174C181.714 34.5144 181.258 34.8855 181 35.1445C180.741 35.4036 180.397 35.8206 180.228 36.0684C180.065 36.3161 179.835 36.7495 179.722 37.0254C179.61 37.3013 179.463 37.7746 179.407 38.0674C179.317 38.5065 179.3 38.7431 179.323 39.3623C179.34 39.7781 179.367 40.1776 179.384 40.252C179.401 40.3192 179.435 40.3755 179.458 40.376C179.486 40.376 181.781 39.2219 184.565 37.8086C187.349 36.3952 189.65 35.2178 189.684 35.1953C189.718 35.167 189.566 34.9703 189.291 34.7002C189.043 34.4524 188.649 34.1315 188.419 33.9795C188.188 33.8332 187.845 33.6476 187.66 33.5742C187.474 33.4954 187.142 33.3881 186.928 33.3262C186.67 33.253 186.287 33.2132 185.803 33.1963ZM98.8384 33.0898C98.7426 33.1012 98.4788 33.1401 98.2486 33.1738C98.018 33.2076 97.6126 33.3091 97.3482 33.3936C97.0839 33.478 96.6565 33.6586 96.3921 33.7881C96.1278 33.9232 95.7728 34.12 95.604 34.2383C95.4353 34.3509 95.1317 34.588 94.9292 34.7568C94.7267 34.9258 94.3892 35.2745 94.1812 35.5391C93.9393 35.8319 93.6803 36.2489 93.4947 36.6318C93.3147 36.9921 93.1403 37.4536 93.0728 37.7295C93.0109 37.994 92.9432 38.4218 92.9263 38.6865C92.9038 38.9511 92.9153 39.4242 92.9546 39.7451C92.9882 40.0584 93.0274 40.317 93.0445 40.3203C93.0614 40.3203 95.3677 39.1539 98.1802 37.7236C100.987 36.299 103.294 35.1226 103.311 35.1113C103.328 35.094 103.237 34.9645 103.114 34.8184C102.99 34.6719 102.708 34.4077 102.495 34.2275C102.275 34.0473 101.854 33.777 101.539 33.625C101.229 33.4731 100.825 33.3096 100.639 33.2588C100.454 33.2138 100.071 33.1461 99.7955 33.1123C99.5198 33.0841 99.2267 33.0618 99.148 33.0674C99.0692 33.0674 98.934 33.0842 98.8384 33.0898Z" fill="#F1D95D"/>
<path d="M140.571 19.0947C140.695 19.0947 140.869 19.14 140.965 19.1963C141.055 19.2526 141.168 19.3765 141.207 19.4609C141.263 19.5931 141.275 22.907 141.258 36.123C141.247 51.8197 141.241 52.65 141.14 53.2412C141.083 53.5847 140.954 54.1873 140.853 54.5928C140.751 54.9924 140.577 55.5779 140.459 55.8877C140.341 56.1974 140.138 56.665 140.009 56.9297C139.879 57.1943 139.592 57.6734 139.373 58C139.159 58.3265 138.794 58.8047 138.563 59.0693C138.333 59.3339 137.978 59.6887 137.781 59.8633C137.584 60.0322 137.27 60.2918 137.084 60.4326C136.898 60.5734 136.543 60.8157 136.296 60.9678C136.048 61.1255 135.604 61.3732 135.312 61.5195C135.019 61.6659 134.497 61.8969 134.159 62.0264C133.816 62.1615 133.208 62.3579 132.809 62.4648C132.404 62.5774 131.797 62.7242 131.459 62.7861C131.116 62.8481 130.525 62.9442 130.137 62.9893C129.749 63.0343 128.916 63.0905 128.28 63.1074C127.611 63.1243 126.728 63.1127 126.171 63.0732C125.642 63.0395 124.861 62.9555 124.428 62.8936C123.995 62.8316 123.359 62.7185 123.021 62.6396C122.679 62.5665 122.172 62.4202 121.896 62.3301C121.615 62.2344 121.17 62.0431 120.405 61.6602V55.5781L120.782 55.7754C120.996 55.8824 121.435 56.0629 121.767 56.1699C122.104 56.2769 122.684 56.4288 123.061 56.502C123.443 56.5808 124.146 56.6817 124.624 56.7324C125.271 56.8056 125.794 56.8233 126.649 56.8008C127.454 56.7839 127.999 56.738 128.449 56.6592C128.804 56.5916 129.321 56.4734 129.603 56.3945C129.878 56.3157 130.362 56.1249 130.671 55.9785C130.98 55.8321 131.397 55.601 131.6 55.4658C131.802 55.3307 132.145 55.0437 132.358 54.8242C132.578 54.6046 132.854 54.2718 132.978 54.0859C133.096 53.9001 133.27 53.5684 133.36 53.3545C133.456 53.1349 133.574 52.729 133.63 52.4531C133.709 52.0815 133.737 51.6985 133.737 50.1162H133.597C133.49 50.1162 133.411 50.184 133.265 50.4092C133.158 50.5724 132.888 50.8876 132.657 51.1016C132.432 51.3212 132.004 51.6594 131.712 51.8564C131.419 52.0535 131.025 52.2898 130.84 52.3799C130.654 52.4756 130.289 52.6391 130.024 52.7461C129.76 52.8531 129.316 52.999 129.04 53.0723C128.759 53.1511 128.32 53.253 128.056 53.3037C127.78 53.3544 127.116 53.405 126.48 53.4219C125.8 53.4444 125.17 53.4271 124.821 53.3877C124.512 53.3483 124.006 53.2699 123.696 53.208C123.387 53.1404 122.79 52.9769 122.374 52.8418C121.958 52.701 121.311 52.4419 120.939 52.2617C120.568 52.0871 120.05 51.8 119.786 51.6367C119.522 51.4734 119.067 51.1519 118.774 50.9268C118.482 50.7072 117.981 50.2575 117.666 49.9365C117.345 49.6212 116.957 49.193 116.794 48.9902C116.636 48.7876 116.333 48.3598 116.119 48.0332C115.905 47.7066 115.585 47.1373 115.399 46.7656C115.219 46.394 114.971 45.8142 114.848 45.4707C114.724 45.1272 114.544 44.536 114.454 44.1475C114.358 43.7589 114.24 43.201 114.195 42.9082C114.15 42.6154 114.083 42.0698 114.049 41.6982C114.021 41.3266 113.993 40.6898 113.993 40.29C113.993 39.8846 114.021 39.2535 114.049 38.8818C114.083 38.5102 114.162 37.8913 114.224 37.5029C114.291 37.1144 114.432 36.4833 114.533 36.0947C114.64 35.7062 114.842 35.0978 114.982 34.7432C115.123 34.3885 115.371 33.8429 115.534 33.5332C115.697 33.2235 115.984 32.7388 116.17 32.4629C116.356 32.187 116.67 31.7536 116.867 31.5059C117.064 31.2581 117.441 30.8408 117.705 30.5762C117.969 30.3117 118.402 29.9294 118.661 29.7266C118.926 29.5182 119.354 29.2136 119.618 29.0391C119.883 28.8701 120.372 28.5888 120.715 28.4199C121.052 28.2454 121.576 28.014 121.868 27.9014C122.161 27.7888 122.678 27.6262 123.021 27.5361C123.359 27.446 123.854 27.3331 124.118 27.2881C124.383 27.2374 124.939 27.1754 125.355 27.1416C125.856 27.1078 126.374 27.1078 126.886 27.1416C127.313 27.1754 127.932 27.2488 128.264 27.3164C128.601 27.3784 129.136 27.519 129.462 27.626C129.788 27.733 130.306 27.9408 130.615 28.0928C130.924 28.2391 131.402 28.5095 131.678 28.6953C131.959 28.8755 132.376 29.2081 132.606 29.4277C132.843 29.6473 133.135 29.9739 133.259 30.1484C133.422 30.3793 133.518 30.4695 133.737 30.4639V26.8604L136.904 23.042C138.648 20.9417 140.133 19.19 140.206 19.1562C140.285 19.1225 140.448 19.0947 140.571 19.0947ZM151.558 9.23438C151.709 9.23444 151.805 9.27415 152.047 9.52734L152.058 19.9961C152.069 25.7509 152.092 30.4639 152.114 30.4639C152.143 30.4635 152.26 30.3227 152.384 30.1484C152.508 29.9739 152.761 29.6863 152.946 29.5117C153.132 29.3372 153.447 29.0783 153.649 28.9375C153.852 28.7912 154.229 28.5498 154.493 28.4033C154.758 28.2513 155.236 28.0201 155.562 27.8906C155.889 27.7611 156.395 27.5923 156.688 27.5078C156.98 27.429 157.446 27.3271 157.728 27.2764C158.003 27.2313 158.561 27.17 158.966 27.1475C159.365 27.125 160.046 27.1242 160.468 27.1523C160.895 27.1749 161.581 27.2649 161.986 27.3438C162.397 27.4226 163.026 27.5868 163.381 27.7051C163.735 27.8233 164.293 28.037 164.619 28.1777C164.945 28.3241 165.473 28.5996 165.794 28.791C166.114 28.9824 166.632 29.3319 166.947 29.5684C167.257 29.8049 167.746 30.2278 168.021 30.498C168.303 30.7739 168.685 31.19 168.871 31.4209C169.062 31.6517 169.389 32.0966 169.597 32.4062C169.805 32.716 170.16 33.3471 170.385 33.8145C170.615 34.2761 170.886 34.9234 170.998 35.25C171.105 35.5765 171.273 36.1564 171.363 36.5449C171.459 36.9335 171.571 37.5256 171.622 37.8691C171.673 38.2127 171.734 38.8934 171.757 39.3887C171.785 39.8842 171.785 40.6959 171.757 41.1914C171.734 41.6867 171.673 42.3674 171.622 42.7109C171.571 43.0544 171.459 43.6466 171.363 44.0352C171.273 44.4237 171.105 45.0036 170.998 45.3301C170.886 45.6566 170.615 46.2983 170.385 46.7656C170.16 47.2274 169.805 47.8641 169.597 48.1738C169.389 48.4835 169.062 48.9284 168.871 49.1592C168.685 49.3901 168.326 49.7785 168.078 50.0205C167.831 50.2683 167.437 50.6228 167.206 50.8086C166.975 50.9944 166.542 51.3049 166.25 51.502C165.958 51.6934 165.463 51.98 165.153 52.1377C164.844 52.301 164.326 52.5324 164 52.6562C163.674 52.7801 163.077 52.9709 162.678 53.0723C162.273 53.1792 161.643 53.3038 161.271 53.3545C160.737 53.4333 160.338 53.4444 159.359 53.4219C158.319 53.3994 158.009 53.371 157.43 53.2471C157.053 53.1682 156.473 53.011 156.136 52.8984C155.804 52.7914 155.281 52.5768 154.972 52.4248C154.662 52.2728 154.19 52.0024 153.92 51.8223C153.65 51.6421 153.25 51.3326 153.025 51.1299C152.8 50.9272 152.513 50.6177 152.39 50.4375C152.26 50.2632 152.143 50.1166 152.114 50.1162C152.092 50.1162 152.075 50.764 152.075 52.9883H144.48L144.476 16.9775L147.771 13.2324C149.588 11.1715 151.13 9.4316 151.209 9.3584C151.299 9.27977 151.423 9.23438 151.558 9.23438ZM186.275 26.7871C186.664 26.804 187.243 26.8485 187.569 26.8936C187.896 26.9386 188.435 27.0513 188.778 27.1357C189.116 27.2258 189.651 27.3952 189.96 27.5078C190.269 27.6204 190.776 27.8453 191.085 28.0029C191.394 28.1662 191.862 28.4368 192.126 28.6113C192.39 28.7803 192.806 29.0842 193.054 29.2812C193.301 29.4783 193.678 29.8051 193.892 30.0078C194.1 30.2104 194.471 30.6042 194.713 30.8857C194.949 31.1616 195.309 31.6235 195.512 31.8994C195.714 32.1753 196.063 32.7104 196.282 33.082C196.507 33.4535 196.861 34.1123 197.075 34.5459C197.283 34.9794 197.582 35.6609 197.739 36.0664C197.891 36.4658 198.038 36.8486 198.055 36.9111C198.083 37.0125 197.239 37.4523 190.084 41.0898C185.685 43.3254 182.085 45.1781 182.085 45.2119C182.086 45.2464 182.277 45.4151 182.507 45.5947C182.738 45.7693 183.182 46.0333 183.491 46.1797C183.801 46.3317 184.256 46.5064 184.504 46.5684C184.751 46.6303 185.201 46.7091 185.499 46.7373C185.859 46.7767 186.241 46.7767 186.596 46.7373C186.899 46.7091 187.339 46.6474 187.569 46.5967C187.8 46.546 188.244 46.4226 188.554 46.3213C188.863 46.2143 189.358 46.017 189.65 45.8818C189.943 45.7467 190.427 45.4929 190.72 45.3184C191.012 45.1438 191.462 44.8515 191.715 44.6602C191.974 44.4744 192.362 44.1476 192.581 43.9336C192.8 43.7253 193.138 43.3647 193.335 43.1338C193.526 42.903 193.785 42.5599 193.909 42.374C194.033 42.1882 194.23 41.8556 194.348 41.6416C194.466 41.422 194.573 41.2417 194.584 41.2305C194.605 41.2284 195.636 41.5816 196.89 42.0186C198.148 42.4554 199.185 42.8199 199.213 42.835C199.23 42.8462 199.207 43.0041 199.162 43.1787C199.123 43.3533 198.999 43.7643 198.893 44.0908C198.786 44.4173 198.544 44.9972 198.358 45.3857C198.178 45.7743 197.858 46.3436 197.655 46.6533C197.453 46.963 197.12 47.4307 196.912 47.6953C196.709 47.9601 196.266 48.4555 195.923 48.7988C195.585 49.1367 195.09 49.5868 194.825 49.8008C194.561 50.0091 194.094 50.3532 193.785 50.5615C193.476 50.7699 192.958 51.0903 192.632 51.2705C192.306 51.4507 191.771 51.7266 191.434 51.873C191.102 52.0195 190.511 52.2565 190.111 52.3916C189.718 52.5267 189.116 52.7005 188.778 52.7793C188.435 52.8637 187.907 52.9715 187.598 53.0166C187.288 53.0673 186.568 53.1237 185.994 53.1406C185.347 53.1631 184.706 53.1459 184.307 53.1064C183.952 53.067 183.35 52.9765 182.968 52.9033C182.591 52.8245 181.972 52.6617 181.59 52.5322C181.213 52.4084 180.6 52.1607 180.229 51.9805C179.857 51.8003 179.34 51.5237 179.075 51.3604C178.811 51.197 178.355 50.8816 178.062 50.6621C177.77 50.4367 177.225 49.9526 176.854 49.5811C176.482 49.2094 175.947 48.6011 175.666 48.2295C175.39 47.8578 174.986 47.2609 174.772 46.9062C174.559 46.5516 174.226 45.9271 174.035 45.5273C173.844 45.1219 173.574 44.4794 173.434 44.0908C173.293 43.7024 173.102 43.0721 173.006 42.6836C172.91 42.295 172.792 41.7257 172.747 41.416C172.696 41.1062 172.646 40.4361 172.623 39.9238C172.606 39.3554 172.618 38.7532 172.657 38.376C172.697 38.0325 172.786 37.4464 172.859 37.0635C172.938 36.6862 173.101 36.0665 173.23 35.6836C173.354 35.3064 173.63 34.6425 173.844 34.209C174.052 33.7755 174.406 33.1558 174.62 32.8291C174.839 32.5025 175.189 32.0234 175.402 31.7588C175.611 31.4997 176.015 31.0549 176.291 30.7734C176.572 30.4975 177.017 30.0921 177.275 29.8838C177.54 29.6698 178.029 29.3092 178.372 29.084C178.71 28.8587 179.233 28.5434 179.525 28.3857C179.818 28.2337 180.336 27.9865 180.679 27.8457C181.016 27.7049 181.573 27.4966 181.916 27.3896C182.254 27.2827 182.827 27.1357 183.182 27.0625C183.536 26.9837 184.081 26.899 184.391 26.8652C184.7 26.8315 185.094 26.7925 185.263 26.7812C185.431 26.77 185.887 26.7758 186.275 26.7871ZM99.3789 26.7021C99.8401 26.6965 100.459 26.7191 100.757 26.7529C101.061 26.7811 101.562 26.8599 101.871 26.9219C102.18 26.9839 102.759 27.1413 103.164 27.2764C103.563 27.4115 104.16 27.648 104.486 27.8057C104.813 27.9633 105.42 28.3188 105.836 28.5947C106.252 28.8763 106.86 29.3378 107.187 29.625C107.507 29.9178 107.974 30.3796 108.216 30.6611C108.458 30.9369 108.845 31.4208 109.07 31.7305C109.295 32.0401 109.667 32.5981 109.892 32.9697C110.117 33.3414 110.472 34 110.68 34.4336C110.888 34.8672 111.203 35.5886 111.377 36.0391C111.551 36.4879 111.68 36.8751 111.67 36.9111C111.659 36.9449 108.047 38.7926 103.653 41.0225C99.2547 43.2522 95.6609 45.0937 95.6553 45.1162C95.657 45.1454 95.8641 45.3198 96.1162 45.5049C96.3749 45.6962 96.8077 45.9606 97.0889 46.0957C97.3645 46.2308 97.8488 46.4114 98.1582 46.4902C98.6473 46.6253 98.8331 46.6418 99.6201 46.6475C100.284 46.6475 100.655 46.6247 101.026 46.5459C101.302 46.4896 101.798 46.3599 102.124 46.2529C102.45 46.1459 103.069 45.8877 103.502 45.6738C103.935 45.4598 104.515 45.1323 104.796 44.9521C105.072 44.7663 105.527 44.429 105.809 44.1982C106.084 43.9673 106.511 43.5503 106.759 43.2744C107.001 42.9929 107.35 42.5367 107.535 42.2607C107.721 41.9848 107.946 41.6075 108.199 41.1064L108.436 41.1963C108.572 41.2417 109.611 41.6132 110.758 42.0127C111.9 42.4181 112.845 42.7512 112.851 42.7568C112.849 42.769 112.8 43.0026 112.728 43.2744C112.66 43.5503 112.502 44.035 112.39 44.3447C112.271 44.6545 112.047 45.1725 111.884 45.499C111.721 45.8256 111.382 46.394 111.135 46.7656C110.887 47.1373 110.448 47.7171 110.15 48.0605C109.858 48.404 109.42 48.8604 109.178 49.0801C108.93 49.2996 108.492 49.6656 108.199 49.8965C107.907 50.1273 107.462 50.4429 107.215 50.6006C106.967 50.7639 106.483 51.0458 106.146 51.2373C105.802 51.4287 105.274 51.693 104.965 51.8281C104.656 51.9632 104.138 52.1657 103.812 52.2783C103.485 52.3965 102.929 52.5603 102.574 52.6504C102.22 52.7349 101.685 52.8478 101.393 52.8984C101.1 52.9491 100.503 53.0158 100.07 53.0439C99.6372 53.0777 99.0015 53.0892 98.6641 53.0723C98.3209 53.0554 97.7527 52.9991 97.3984 52.9541C97.044 52.9034 96.4084 52.7798 95.9922 52.6729C95.5759 52.5659 94.9403 52.3634 94.5859 52.2227C94.2316 52.0819 93.7253 51.8507 93.4609 51.71C93.1965 51.5692 92.7017 51.2701 92.3643 51.0449C92.0211 50.8197 91.5034 50.4315 91.2109 50.1895C90.9185 49.9417 90.4629 49.5142 90.2041 49.2383C89.9454 48.9624 89.5293 48.4607 89.2705 48.1172C89.0174 47.7737 88.6802 47.2946 88.5283 47.0469C88.3764 46.7991 88.1174 46.3543 87.96 46.0615C87.8025 45.7688 87.5718 45.285 87.4424 44.9922C87.313 44.6994 87.0989 44.1415 86.9639 43.7529C86.8346 43.3646 86.6718 42.8075 86.5986 42.5146C86.5312 42.222 86.4405 41.7771 86.3955 41.5293C86.3561 41.2815 86.2886 40.6951 86.2549 40.2334C86.2099 39.6086 86.2099 39.1803 86.2549 38.5723C86.2887 38.1218 86.3851 37.4402 86.4639 37.0518C86.5427 36.6631 86.7169 36.0044 86.8574 35.5879C86.9925 35.1712 87.2682 34.4954 87.4707 34.0957C87.6676 33.6903 88.0106 33.0819 88.2412 32.7441C88.4662 32.4007 88.8149 31.9225 89.0117 31.6748C89.2142 31.427 89.6474 30.9594 89.9736 30.6328C90.2998 30.3063 90.8224 29.8498 91.1318 29.6133C91.4355 29.3769 91.9026 29.045 92.167 28.876C92.4314 28.707 92.8596 28.454 93.124 28.3076C93.3884 28.1668 93.8662 27.9359 94.1924 27.8008C94.5186 27.6656 95.07 27.4564 95.4131 27.3438C95.7618 27.2311 96.2567 27.0905 96.5098 27.0342C96.7685 26.9722 97.2411 26.8886 97.5674 26.8379C97.8932 26.7873 98.2471 26.7418 98.3545 26.7305C98.4614 26.7192 98.9233 26.7021 99.3789 26.7021ZM90.4238 17.8506V24.8887H82.4355V52.4814H74.7295L74.7012 24.917L66.7422 24.8887V17.8506H90.4238ZM158.319 33.8711C157.932 33.8599 157.555 33.8602 157.476 33.877C157.397 33.8882 157.154 33.9281 156.94 33.9619C156.727 33.9958 156.344 34.0909 156.097 34.1641C155.849 34.2429 155.405 34.4291 155.112 34.5811C154.82 34.7275 154.364 35.0261 154.1 35.2344C153.835 35.4484 153.447 35.8312 153.239 36.0957C153.003 36.3884 152.739 36.8106 152.548 37.1934C152.385 37.5367 152.182 38.0548 152.108 38.3477C152.03 38.6404 151.94 39.0966 151.906 39.3613C151.878 39.626 151.85 40.0318 151.85 40.2627C151.85 40.4936 151.878 40.8994 151.906 41.1641C151.934 41.4288 152.025 41.8955 152.104 42.2051C152.188 42.5429 152.368 43.016 152.548 43.3877C152.739 43.7706 153.003 44.1877 153.239 44.4805C153.447 44.745 153.835 45.1334 154.1 45.3418C154.364 45.5558 154.792 45.8434 155.057 45.9785C155.321 46.1136 155.766 46.2988 156.041 46.3945C156.317 46.4846 156.812 46.6034 157.138 46.6484C157.464 46.6991 157.896 46.7382 158.11 46.7383C158.318 46.7383 158.685 46.7105 158.927 46.6768C159.163 46.643 159.562 46.5697 159.81 46.5078C160.057 46.4459 160.524 46.2653 160.851 46.1133C161.177 45.9556 161.604 45.7137 161.807 45.5674C162.009 45.421 162.357 45.1107 162.588 44.8799C162.813 44.6491 163.111 44.2946 163.246 44.0918C163.375 43.8891 163.573 43.5346 163.68 43.3037C163.787 43.0728 163.932 42.7174 163.994 42.5146C164.062 42.3119 164.157 41.9345 164.208 41.6699C164.275 41.3434 164.304 40.9044 164.304 40.291C164.304 39.666 164.276 39.2434 164.214 38.9111C164.158 38.6466 164.051 38.2302 163.967 37.9824C163.882 37.7347 163.741 37.3792 163.651 37.1934C163.556 37.0076 163.371 36.6929 163.241 36.4902C163.106 36.2875 162.813 35.932 162.588 35.7012C162.357 35.4648 162.009 35.1554 161.807 35.0146C161.604 34.8683 161.239 34.6542 160.991 34.5303C160.744 34.4064 160.384 34.2485 160.192 34.1865C159.996 34.119 159.652 34.0292 159.433 33.9785C159.208 33.9279 158.707 33.8824 158.319 33.8711ZM127.859 33.8711C127.454 33.8598 126.976 33.8713 126.79 33.8994C126.604 33.9332 126.25 34.0064 126.003 34.0684C125.755 34.1303 125.339 34.2773 125.074 34.3955C124.81 34.5137 124.405 34.7328 124.175 34.8848C123.944 35.0368 123.533 35.375 123.269 35.6396C122.999 35.9041 122.667 36.3035 122.532 36.5176C122.392 36.7372 122.211 37.0476 122.127 37.2109C122.048 37.3687 121.907 37.7233 121.812 37.999C121.722 38.2692 121.609 38.7307 121.564 39.0234C121.514 39.3163 121.475 39.8912 121.475 40.291C121.475 40.7132 121.514 41.2479 121.564 41.5576C121.615 41.8503 121.716 42.2837 121.795 42.5146C121.868 42.7454 122.025 43.1399 122.144 43.3877C122.262 43.6355 122.516 44.0413 122.701 44.2891C122.881 44.5368 123.196 44.8911 123.393 45.0713C123.589 45.2514 123.904 45.505 124.09 45.6289C124.275 45.7584 124.619 45.9557 124.85 46.0684C125.08 46.181 125.474 46.3382 125.722 46.417C125.969 46.4958 126.335 46.5924 126.537 46.6318C126.74 46.6712 127.246 46.7041 127.662 46.7041C128.078 46.7041 128.613 46.6713 128.844 46.6318C129.074 46.5924 129.467 46.4958 129.715 46.417C129.962 46.3382 130.407 46.153 130.699 46.001C130.992 45.8546 131.436 45.5672 131.684 45.3701C131.931 45.173 132.252 44.874 132.393 44.7051C132.533 44.5362 132.775 44.2103 132.927 43.9795C133.073 43.7486 133.282 43.3542 133.389 43.1064C133.49 42.8587 133.619 42.4813 133.681 42.2617C133.737 42.0477 133.816 41.6533 133.85 41.3887C133.895 41.0734 133.911 40.5893 133.889 39.9814C133.872 39.4411 133.822 38.8778 133.766 38.6299C133.715 38.399 133.591 37.9932 133.495 37.7285C133.394 37.464 133.208 37.059 133.073 36.8281C132.944 36.5973 132.679 36.2192 132.482 35.9883C132.291 35.7574 131.932 35.4028 131.679 35.2002C131.426 34.9976 130.987 34.7109 130.694 34.5645C130.402 34.4181 130.014 34.2486 129.828 34.1865C129.642 34.1302 129.288 34.0351 129.04 33.9844C128.793 33.9337 128.264 33.8768 127.859 33.8711ZM185.798 33.1953C185.393 33.1841 184.914 33.1957 184.729 33.2295C184.543 33.2577 184.2 33.3365 183.97 33.3984C183.739 33.466 183.317 33.6183 183.041 33.7422C182.765 33.8605 182.293 34.1194 182.001 34.3164C181.709 34.5134 181.253 34.8845 180.994 35.1436C180.735 35.4026 180.391 35.8196 180.223 36.0674C180.06 36.3151 179.829 36.7485 179.717 37.0244C179.604 37.3003 179.458 37.7736 179.401 38.0664C179.311 38.5056 179.295 38.7422 179.317 39.3613C179.334 39.7772 179.362 40.1766 179.379 40.251C179.396 40.3183 179.43 40.3745 179.452 40.375C179.48 40.375 181.775 39.2209 184.56 37.8076C187.344 36.3942 189.645 35.2169 189.679 35.1943C189.712 35.166 189.561 34.9693 189.285 34.6992C189.038 34.4515 188.644 34.1306 188.413 33.9785C188.183 33.8322 187.84 33.6466 187.654 33.5732C187.469 33.4944 187.137 33.3871 186.923 33.3252C186.664 33.252 186.281 33.2122 185.798 33.1953ZM98.833 33.0889C98.7372 33.1002 98.4734 33.1391 98.2432 33.1729C98.0126 33.2066 97.6072 33.3081 97.3428 33.3926C97.0784 33.477 96.6511 33.6576 96.3867 33.7871C96.1223 33.9223 95.7674 34.1191 95.5986 34.2373C95.4299 34.35 95.1263 34.587 94.9238 34.7559C94.7213 34.9249 94.3838 35.2735 94.1758 35.5381C93.9339 35.8309 93.6749 36.2479 93.4893 36.6309C93.3093 36.9912 93.1349 37.4527 93.0674 37.7285C93.0055 37.9931 92.9378 38.4209 92.9209 38.6855C92.8984 38.9501 92.9099 39.4232 92.9492 39.7441C92.9828 40.0575 93.022 40.316 93.0391 40.3193C93.0559 40.3193 95.3623 39.1529 98.1748 37.7227C100.982 36.298 103.289 35.1216 103.306 35.1104C103.322 35.093 103.232 34.9635 103.108 34.8174C102.985 34.671 102.703 34.4067 102.489 34.2266C102.27 34.0464 101.848 33.7761 101.533 33.624C101.224 33.4721 100.82 33.3086 100.634 33.2578C100.448 33.2128 100.066 33.1451 99.79 33.1113C99.5144 33.0832 99.2213 33.0608 99.1426 33.0664C99.0638 33.0664 98.9286 33.0832 98.833 33.0889Z" fill="white"/>
<path d="M7.61831 19.8379L15.0126 24.8953L14.908 55.8537L7.5625 50.887L7.61831 19.8379Z" fill="#EBAF56"/>
<path d="M30.0952 35.1648L22.2266 29.7715L22.2686 60.6033L30.0673 66.1501L30.1092 57.249L30.0952 35.1648Z" fill="#EBAF56"/>
<path d="M59.3328 39.1543L51.9594 42.5794L51.8129 44.9442L51.7362 46.1649C51.3902 47.7275 49.2854 48.9971 48.2762 49.4366L45.5068 50.7131L40.7982 52.8686L30.1044 57.2843L30.0625 66.1505L55.4473 54.6893C58.9854 53.6123 59.5118 49.325 59.3328 47.3159V39.1543Z" fill="#EEC45B"/>
</svg>
