<svg width="1733" height="477" viewBox="0 0 1733 477" fill="none" xmlns="http://www.w3.org/2000/svg">
<path d="M798.083 1.29394C794.062 1.86903 787.312 3.88182 783.004 5.89462C778.695 7.76365 772.807 11.3579 770.079 13.802C767.35 16.1024 763.042 21.2781 760.457 25.16C757.872 29.0418 754.856 36.0866 753.563 40.831C751.696 48.4509 751.409 71.7419 751.696 242.83L752.127 436.202C757.872 448.423 762.036 454.892 765.196 458.199C768.212 461.65 773.669 466.394 777.259 468.551C780.85 470.851 787.312 473.726 791.621 474.876C798.801 477.033 842.172 477.177 1245.44 476.889L1691.35 476.458C1703.56 471.57 1710.88 466.682 1715.62 462.512C1721.37 457.336 1725.39 452.017 1728.55 445.547L1733 436.202V40.831C1726.97 28.6105 1722.8 22.1408 1719.64 18.5465C1716.63 14.9522 1710.31 10.064 1705.57 7.47611C1700.26 4.60069 1693.36 2.30034 1687.04 1.43771C1680.3 0.431314 1533.67 0 1241.13 0C1001.44 0.143771 801.961 0.718859 798.083 1.29394Z" fill="white"/>
<path d="M1467.32 86.119C1461 87.5568 1451.66 90.1446 1446.49 91.8699C1441.32 93.7389 1433.28 97.0457 1428.54 99.4898C1423.8 101.79 1415.76 106.535 1410.59 109.985C1405.42 113.292 1396.37 120.912 1390.49 126.806C1384.6 132.701 1376.55 142.19 1372.53 148.084C1368.66 153.979 1363.06 163.899 1360.18 170.225C1357.17 176.551 1353.43 186.903 1351.85 193.229C1350.13 199.555 1348.12 210.194 1347.26 216.951C1346.25 225.29 1346.25 234.779 1347.26 247.143C1348.12 257.063 1350.42 271.009 1352.28 278.054C1354.15 285.098 1358.32 296.456 1361.48 303.214C1364.64 309.971 1371.1 320.61 1375.69 326.936C1380.43 333.262 1388.33 342.319 1393.5 346.92C1398.53 351.521 1406.28 357.847 1410.59 360.722C1414.9 363.741 1423.66 368.773 1429.98 371.936C1436.3 375.099 1446.06 379.125 1451.52 380.706C1456.98 382.432 1467.03 384.732 1473.78 386.026C1480.53 387.176 1492.74 388.039 1501.07 388.039C1509.4 388.039 1521.89 387.032 1529.07 385.882C1536.25 384.588 1547.74 381.569 1554.92 379.269C1562.1 376.825 1572.01 372.655 1577.18 369.78C1582.35 366.904 1590.68 361.585 1595.85 357.847C1601.02 354.109 1609.78 346.201 1615.24 340.45C1620.7 334.556 1627.88 325.93 1630.89 321.185C1634.05 316.441 1639.08 307.383 1641.95 301.057C1644.97 294.731 1648.7 284.38 1650.42 278.054C1652 271.728 1654.16 260.37 1655.02 252.894C1656.31 242.542 1656.31 234.922 1655.02 221.983C1654.16 212.494 1652 199.555 1650.42 193.229C1648.7 186.903 1643.96 174.682 1639.65 165.912C1635.2 156.855 1628.02 145.209 1622.85 138.596C1617.82 132.27 1608.2 122.637 1601.6 117.317C1594.85 111.998 1583.21 104.378 1575.75 100.64C1568.28 96.7581 1557.51 92.1574 1552.05 90.4322C1546.59 88.8507 1537.69 86.4066 1532.23 85.2564C1526.06 83.9625 1514.85 83.2436 1500.64 83.3874C1485.13 83.3874 1475.5 84.25 1467.32 86.119ZM836.284 234.779L836.141 383.726H909.383V294.587C956.775 294.587 966.254 293.869 976.163 291.856C983.344 290.418 993.971 286.967 999.859 284.236C1005.75 281.504 1014.65 276.185 1019.53 272.447C1024.56 268.852 1031.45 262.095 1035.04 257.638C1038.63 253.037 1043.8 244.699 1046.53 239.235C1049.12 233.772 1052.56 225.002 1053.86 219.826C1055.72 212.925 1056.44 205.305 1056.44 191.072C1056.44 177.126 1055.72 169.075 1053.86 162.318C1052.42 157.142 1049.98 149.81 1048.26 145.784C1046.68 141.902 1042.94 135.001 1040.07 130.688C1037.05 126.375 1030.45 118.755 1025.13 113.867C1018.82 107.829 1011.64 102.797 1003.74 99.0585C997.274 95.8955 986.79 91.8699 980.471 90.1446C969.557 87.1255 965.392 86.9817 902.633 86.4066L836.284 85.9753V234.779ZM1086.17 234.779V383.582H1159.41V290.13L1188.71 290.849L1244.14 383.582H1321.69C1318.39 377.543 1303.6 353.677 1286.8 326.792L1256.06 277.91C1268.56 269.859 1276.03 263.389 1280.77 258.213C1285.5 253.181 1291.39 244.843 1293.98 239.667C1296.42 234.635 1299.58 227.302 1300.73 223.277C1302.02 219.395 1303.6 210.912 1304.46 204.587C1305.47 196.535 1305.47 188.915 1304.32 178.708C1303.46 170.8 1301.45 160.161 1299.87 154.985C1298.29 149.953 1294.7 141.471 1291.82 136.295C1288.81 130.832 1282.2 122.493 1275.88 116.167C1267.7 108.116 1261.81 103.803 1252.76 99.346C1246.01 95.8955 1235.38 91.7261 1229.06 90.0009C1218.15 87.1254 1213.84 86.8379 1151.94 86.4066L1086.31 85.8315L1086.17 234.779Z" fill="black"/>
<path d="M1483.12 154.267C1478.38 155.273 1470.33 158.292 1465.16 160.88C1459.99 163.468 1452.38 168.931 1448.07 172.957C1443.77 176.982 1438.16 183.74 1435.58 187.765C1432.85 191.935 1428.97 200.417 1426.82 206.456C1423.52 216.088 1422.94 219.97 1423.09 234.203C1423.09 245.418 1423.8 253.756 1425.53 260.082C1426.96 265.258 1430.12 273.309 1432.56 277.91C1435.15 282.654 1439.74 289.412 1443.05 293.006C1446.21 296.6 1452.38 301.92 1456.69 304.939C1461 307.814 1469.47 311.84 1475.5 313.853C1484.55 316.872 1489.43 317.591 1500.78 317.591C1508.82 317.591 1518.3 316.728 1523.33 315.29C1528.07 314.14 1535.1 311.409 1539.12 309.252C1543 307.096 1550.9 300.913 1556.5 295.306C1563.3 288.597 1568.18 282.127 1571.15 275.897C1573.74 270.721 1576.75 262.095 1577.9 256.488C1579.05 250.881 1580.05 241.536 1580.05 235.641C1580.05 229.747 1579.05 220.258 1577.9 214.794C1576.75 209.187 1573.59 200.13 1570.86 194.666C1568.13 189.059 1563.11 181.296 1559.66 177.414C1556.07 173.388 1549.75 167.925 1545.44 165.193C1541.13 162.462 1533.52 158.724 1528.35 156.855C1521.75 154.41 1515 153.26 1505.38 152.829C1496.9 152.541 1488.43 152.973 1483.12 154.267ZM909.383 190.353V227.015C943.276 227.015 955.77 226.296 958.929 225.433C962.089 224.427 966.972 222.27 969.7 220.401C972.429 218.676 976.307 214.363 978.317 210.913C981.477 205.593 981.907 203.005 981.907 191.791C981.907 180.864 981.333 177.701 978.317 171.807C976.307 167.781 972.573 163.18 969.7 161.311C966.972 159.442 960.796 156.998 956.057 155.848C950.743 154.554 940.116 153.692 928.34 153.692H909.383V190.353ZM1159.41 190.209L1159.27 227.015C1208.1 226.296 1208.96 226.152 1215.71 222.27C1221.02 219.251 1223.32 216.663 1226.34 210.05C1229.5 203.58 1230.36 199.842 1230.36 191.791C1230.36 185.896 1229.35 178.995 1227.92 175.257C1226.62 171.663 1222.89 166.343 1219.73 163.324C1216.43 160.449 1211.4 157.286 1208.53 156.423C1205.51 155.561 1193.31 154.41 1181.39 154.123L1159.56 153.404L1159.41 190.209Z" fill="white"/>
<path d="M539.58 154.986C547.479 152.829 553.08 152.397 566.148 152.828C579.074 153.26 584.675 154.123 591.999 156.855C597.169 158.724 605.067 162.893 609.807 165.912C614.402 169.075 618.854 172.813 619.572 174.107C620.29 175.544 621.583 176.694 622.301 176.695C623.019 176.695 623.594 172.094 623.594 156.567H696.836L696.405 266.12L696.404 266.478C695.975 375.1 695.971 375.974 692.815 387.32C690.948 393.646 687.214 403.278 684.342 408.885C680.895 415.499 675.294 422.688 668.257 429.733C659.928 438.071 654.47 441.953 645.136 446.554C638.386 449.861 628.045 453.886 622.157 455.467C616.269 457.192 604.924 459.205 597.025 460.068C588.552 461.074 575.914 461.363 566.148 460.787C557.101 460.212 545.469 458.918 540.299 457.911C535.129 456.761 527.517 454.461 515.741 449.142L515.885 420.675C515.885 405.148 516.028 392.352 516.315 392.352C516.462 392.353 519.189 393.36 522.347 394.653C525.506 395.947 532.974 397.815 538.862 398.965C544.75 399.972 556.095 400.834 563.994 400.978C572.036 400.978 582.52 399.972 587.69 398.678C592.86 397.528 599.61 395.083 602.77 393.214C605.929 391.345 610.669 387.608 613.397 385.02C616.126 382.288 619.429 377.543 620.865 374.38C622.301 371.217 623.594 365.179 623.594 361.01C623.594 356.986 623.45 353.535 623.307 353.534C623.019 353.39 620.578 355.546 617.85 358.134C614.977 360.722 609.232 364.892 604.924 367.48C600.615 370.068 591.568 373.518 584.818 375.244C574.909 377.688 569.883 378.262 558.25 377.687C547.048 377.112 541.017 375.962 530.964 372.511C523.783 369.923 514.448 365.754 510.14 363.31C505.831 360.722 497.501 353.677 491.47 347.783C485.582 341.888 478.258 332.83 475.242 327.655C472.226 322.479 468.205 313.277 466.338 307.095C464.327 301.057 462.03 291.28 461.168 285.53C460.163 279.635 459.876 267.558 460.307 257.206C460.881 242.398 461.743 236.791 465.477 225.578C467.774 218.101 472.226 207.894 475.242 202.862C478.258 197.973 483.572 190.497 487.162 186.471C490.753 182.302 497.502 176.12 502.241 172.669C506.98 169.075 515.022 164.33 520.192 161.886C525.362 159.586 533.979 156.423 539.58 154.986ZM333.927 152.398C341.538 152.254 352.884 153.26 358.916 154.554C365.091 155.848 373.995 158.436 378.734 160.305C383.474 162.318 391.229 166.344 395.968 169.219C400.707 172.095 408.462 178.42 413.201 183.164C417.94 188.053 423.973 195.529 426.414 199.842C428.999 204.012 432.733 211.487 434.6 216.232C436.61 220.976 439.195 229.746 440.487 235.641C441.923 242.398 442.785 253.613 442.785 265.833C442.785 276.472 442.499 286.968 441.206 293.15H367.963C310.231 293.15 294.721 293.581 294.721 294.875C294.865 295.882 298.168 300.051 302.332 304.077C307.311 308.965 312.673 312.511 318.417 314.715C324.88 317.303 330.911 318.166 342.831 318.741C351.591 319.028 362.219 318.597 366.527 317.735C370.836 316.872 379.309 313.852 395.968 305.801L411.334 322.047C419.949 331.103 426.842 339.298 426.845 340.162C426.845 341.169 423.398 345.051 419.233 348.789C415.069 352.671 407.888 358.135 403.148 361.01C398.409 363.886 390.079 368.055 384.479 370.068C378.878 372.224 369.687 374.812 364.086 375.962C358.341 377.112 346.852 377.975 338.522 377.975C330.193 377.975 318.416 376.968 312.385 375.674C306.209 374.38 296.3 371.361 290.412 368.917C284.524 366.473 275.19 361.585 269.732 357.991C264.275 354.396 255.658 346.92 250.632 341.313C244.457 334.7 239.287 326.936 235.122 318.31C231.532 311.265 227.654 300.913 226.218 295.306C224.494 288.261 223.776 279.06 223.776 264.396C223.633 248.725 224.351 241.248 226.218 234.203C227.654 229.028 230.813 220.258 233.398 214.794C235.983 209.331 240.435 201.567 243.164 197.541C245.893 193.66 251.35 187.19 255.228 183.308C259.249 179.283 266.285 173.676 271.024 170.657C275.764 167.637 284.093 163.181 289.694 160.88C295.295 158.724 304.199 155.848 309.8 154.698C315.401 153.404 326.172 152.398 333.927 152.398ZM207.117 143.627H141.056V373.661H67.8135L67.0947 144.346L0.31543 143.627L0.0273438 110.848C-0.116259 92.7341 0.315228 77.4952 1.0332 77.0619C1.75127 76.4868 48.2817 76.0551 207.117 76.0551V143.627ZM578.356 217.095C572.038 217.095 564.713 217.957 561.841 218.963C559.112 219.826 553.942 222.702 550.352 225.002C546.905 227.446 542.166 231.903 540.012 235.066C537.858 238.085 535.129 243.549 533.692 247.143C532.113 251.169 531.251 257.639 531.251 265.115C531.395 273.597 532.257 278.773 534.698 285.243C536.852 290.849 540.299 296.025 544.607 300.338C548.629 304.364 554.373 308.102 559.687 310.258C565.862 312.702 571.176 313.709 578.356 313.709C585.537 313.709 590.994 312.702 597.025 310.258C602.626 308.102 608.084 304.651 612.249 300.338C616.414 296.169 619.86 290.706 622.015 285.243C624.312 279.06 625.317 273.453 625.317 265.833C625.317 259.364 624.312 252.031 622.876 247.862C621.583 243.836 618.711 238.085 616.557 234.922C614.259 231.759 610.094 227.302 606.935 225.146C603.919 222.989 598.749 220.258 595.59 219.108C592.43 217.958 584.963 217.095 578.356 217.095ZM334.933 212.638C329.906 212.782 323.013 213.501 319.854 214.507C316.694 215.514 311.093 218.532 307.216 221.264C303.338 223.996 298.455 229.172 296.014 232.766C293.716 236.216 291.849 239.666 291.849 240.242C291.849 240.817 311.237 241.392 334.933 241.392H378.017C375.288 234.06 371.266 228.74 367.245 224.714C362.075 219.539 357.91 216.95 352.166 215.081C347.858 213.788 340.103 212.638 334.933 212.638Z" fill="white"/>
</svg>
